<svg width="120" height="46" viewBox="0 0 120 46" fill="none" xmlns="http://www.w3.org/2000/svg">
<path d="M34.6528 38.5241C34.028 38.5241 33.5241 38.0538 33.5241 37.4707V18.0545C33.5241 15.5199 32.6575 12.8583 31.1459 10.7563C30.7982 10.272 30.9393 9.61834 31.4532 9.29858C31.9722 8.97411 32.6726 9.10578 33.0152 9.58542C34.7939 12.0636 35.7714 15.0731 35.7714 18.0592V37.4754C35.7815 38.0491 35.2776 38.5241 34.6528 38.5241Z" fill="#413E43"/>
<path d="M27.4626 37.8515C25.5176 37.8515 23.9354 36.375 23.9354 34.5598V23.829C23.9354 23.2459 24.4393 22.7756 25.0641 22.7756C25.6889 22.7756 26.1929 23.2459 26.1929 23.829V34.5598C26.1929 35.2135 26.7622 35.7449 27.4626 35.7449C28.163 35.7449 28.7324 35.2135 28.7324 34.5598V29.7775C28.7324 29.1944 29.2362 28.7242 29.861 28.7242C30.4858 28.7242 30.9897 29.1944 30.9897 29.7775V34.5598C30.9897 36.3797 29.4075 37.8515 27.4626 37.8515Z" fill="#413E43"/>
<path d="M29.2918 8.43322C29.0348 8.43322 28.7778 8.35327 28.5713 8.18869C27.1554 7.08362 25.3414 6.19017 23.467 5.6776C22.8674 5.51302 22.5247 4.92992 22.7011 4.37033C22.8774 3.81075 23.5023 3.49099 24.1019 3.65557C26.2685 4.24808 28.3697 5.2826 30.0224 6.57106C30.5011 6.94255 30.5616 7.60559 30.1635 8.05231C29.9368 8.30624 29.6142 8.43322 29.2918 8.43322Z" fill="#413E43"/>
<path d="M10.0838 8.65468C9.76128 8.65468 9.43882 8.52771 9.21711 8.27848C8.81905 7.83175 8.87953 7.16871 9.35821 6.79722C12.3714 4.45072 16.1605 3.10112 19.7481 3.10112C20.373 3.10112 20.8768 3.57137 20.8768 4.15447C20.8768 4.73757 20.373 5.20781 19.7481 5.20781C16.6745 5.20781 13.4144 6.37871 10.7993 8.41485C10.5927 8.57473 10.3357 8.65468 10.0838 8.65468Z" fill="#413E43"/>
<path d="M4.84865 19.5977C4.22384 19.5977 3.71997 19.1274 3.71997 18.5443V18.0553C3.71997 15.0833 4.65718 12.2102 6.42579 9.74609C6.77346 9.26175 7.4739 9.13479 7.98785 9.45925C8.50685 9.78372 8.64289 10.4374 8.29521 10.917C6.7735 13.0331 5.97235 15.5018 5.97235 18.0506V18.5396C5.97739 19.1274 5.47346 19.5977 4.84865 19.5977Z" fill="#413E43"/>
<path d="M29.861 26.1713C29.2361 26.1713 28.7323 25.7011 28.7323 25.118V18.0549C28.7323 13.4325 24.7063 9.67524 19.7532 9.67524C19.1284 9.67524 18.6245 9.20501 18.6245 8.62191C18.6245 8.03881 19.1284 7.56856 19.7532 7.56856C25.9459 7.56856 30.9896 12.271 30.9896 18.0549V25.118C30.9846 25.7011 30.4807 26.1713 29.861 26.1713Z" fill="#413E43"/>
<path d="M9.64555 22.8833C9.02074 22.8833 8.51687 22.413 8.51687 21.8299V18.0539C8.51687 13.8875 11.263 9.97043 15.3545 8.30578C15.9239 8.07536 16.589 8.31519 16.8409 8.85126C17.0878 9.38263 16.8308 10.0034 16.2564 10.2385C12.9762 11.574 10.7692 14.7199 10.7692 18.0586V21.8346C10.7742 22.413 10.2653 22.8833 9.64555 22.8833Z" fill="#413E43"/>
<path d="M14.4375 24.6331C13.8127 24.6331 13.3088 24.1628 13.3088 23.5797V18.2284C13.3088 14.979 15.9441 12.2657 19.31 12.0541C21.1088 11.9413 22.827 12.515 24.1472 13.6624C25.4472 14.7956 26.193 16.3945 26.193 18.0497V19.2535C26.193 19.8366 25.689 20.3069 25.0642 20.3069C24.4394 20.3069 23.9356 19.8366 23.9356 19.2535V18.0497C23.9356 16.9587 23.462 15.9477 22.6054 15.1953C21.7488 14.4477 20.6301 14.0762 19.4611 14.1514C17.2743 14.2878 15.5611 16.0747 15.5611 18.2237V23.575C15.5662 24.1628 15.0623 24.6331 14.4375 24.6331Z" fill="#413E43"/>
<path d="M19.7335 34.2316C19.1087 34.2316 18.6048 33.7614 18.6048 33.1783V19.2874C18.6048 18.7043 19.1087 18.234 19.7335 18.234C20.3583 18.234 20.8622 18.7043 20.8622 19.2874V33.1783C20.8622 33.7614 20.3533 34.2316 19.7335 34.2316Z" fill="#413E43"/>
<path d="M49.1344 23.076C47.4767 23.076 46.217 22.6481 45.3503 21.7875C44.4836 20.927 44.0503 19.7091 44.0503 18.1243C44.0503 17.339 44.1813 16.6337 44.4484 16.0177C44.7155 15.4016 45.0732 14.8797 45.5367 14.4518C45.9953 14.0286 46.5445 13.7041 47.1844 13.4831C47.8193 13.2621 48.5146 13.1539 49.2553 13.1539C49.6887 13.1539 50.0767 13.1821 50.4294 13.2432C50.7821 13.3044 51.0895 13.3702 51.3565 13.4502C51.6236 13.5301 51.8403 13.61 52.0166 13.69C52.193 13.7746 52.3189 13.8358 52.3995 13.8828L51.7395 15.6133C51.4271 15.4581 51.0592 15.3264 50.646 15.2136C50.2278 15.1054 49.7542 15.049 49.2251 15.049C48.8724 15.049 48.5247 15.1054 48.1871 15.2136C47.8495 15.3217 47.5523 15.5004 47.2903 15.7402C47.0283 15.9847 46.8217 16.2951 46.6655 16.6807C46.5093 17.0663 46.4286 17.5318 46.4286 18.082C46.4286 18.5194 46.479 18.9285 46.5848 19.3094C46.6856 19.6902 46.8519 20.0147 47.0837 20.2922C47.3154 20.5649 47.6128 20.7859 47.9856 20.9458C48.3585 21.1057 48.8069 21.1856 49.336 21.1856C49.6685 21.1856 49.9658 21.1668 50.2329 21.1292C50.4999 21.0916 50.7317 21.0493 50.9383 20.9975C51.1449 20.9458 51.3263 20.8894 51.4825 20.8282C51.6387 20.7624 51.7798 20.706 51.9108 20.6495L52.5406 22.3659C52.2181 22.5493 51.7596 22.7139 51.1751 22.8597C50.5906 23.0008 49.9104 23.076 49.1344 23.076Z" fill="#413E43"/>
<path d="M56.264 13.5815C56.264 13.9577 56.133 14.2492 55.876 14.4655C55.614 14.6818 55.3117 14.79 54.959 14.79C54.6063 14.79 54.2989 14.6818 54.0419 14.4655C53.7799 14.2492 53.654 13.9577 53.654 13.5815C53.654 13.2053 53.7849 12.9137 54.0419 12.6974C54.3039 12.4811 54.6063 12.3729 54.959 12.3729C55.3117 12.3729 55.619 12.4811 55.876 12.6974C56.133 12.9137 56.264 13.21 56.264 13.5815ZM56.0574 22.8828H53.8656V15.6693H56.0574V22.8828Z" fill="#413E43"/>
<path d="M64.714 22.6386C64.3412 22.7374 63.8625 22.8314 63.273 22.9208C62.6834 23.0054 62.0687 23.0524 61.4187 23.0524C60.7636 23.0524 60.2144 22.9678 59.7811 22.8032C59.3427 22.6386 59.0001 22.4082 58.7431 22.1119C58.4861 21.8157 58.3047 21.4583 58.1989 21.0492C58.0931 20.6354 58.0377 20.1839 58.0377 19.6902V15.6696H60.2295V19.441C60.2295 20.0993 60.3202 20.5742 60.5067 20.8658C60.6931 21.1573 61.0408 21.3031 61.5497 21.3031C61.7059 21.3031 61.8721 21.2984 62.0485 21.2843C62.2249 21.2702 62.3811 21.2561 62.5171 21.2373V15.6696H64.709V22.6386H64.714Z" fill="#413E43"/>
<path d="M73.5926 22.6527C73.3961 22.7092 73.1694 22.7609 72.9174 22.8126C72.6604 22.8643 72.3933 22.9067 72.1162 22.9443C71.8391 22.9819 71.5519 23.0101 71.2647 23.0336C70.9775 23.0571 70.7003 23.0665 70.4333 23.0665C69.7984 23.0665 69.229 22.9819 68.7302 22.8079C68.2313 22.6339 67.8081 22.3847 67.4654 22.0602C67.1228 21.7357 66.8608 21.3408 66.6794 20.8799C66.498 20.4191 66.4073 19.8971 66.4073 19.3234C66.4073 18.7403 66.4879 18.2089 66.6441 17.7387C66.8003 17.2685 67.0271 16.8688 67.3194 16.5396C67.6116 16.2104 67.9743 15.9612 68.3976 15.7872C68.8259 15.6132 69.3096 15.5286 69.8589 15.5286C70.1612 15.5286 70.4333 15.5568 70.6751 15.6132C70.917 15.6696 71.1589 15.7449 71.4007 15.8483V12.5849L73.5926 12.2557V22.6527ZM68.6395 19.22C68.6395 19.8501 68.7906 20.3579 69.0929 20.7435C69.3953 21.1291 69.8488 21.3219 70.4434 21.3219C70.6399 21.3219 70.8213 21.3172 70.9875 21.3031C71.1538 21.289 71.2899 21.2749 71.4007 21.2561V17.5365C71.2647 17.4566 71.0833 17.386 70.8666 17.3296C70.6449 17.2732 70.4232 17.2497 70.1965 17.2497C69.1585 17.245 68.6395 17.9033 68.6395 19.22Z" fill="#413E43"/>
<path d="M78.4295 15.4768C79.0745 15.4768 79.6137 15.5474 80.047 15.6837C80.4804 15.8201 80.823 16.0176 81.085 16.2715C81.347 16.5255 81.5284 16.8405 81.6342 17.2026C81.74 17.5694 81.7955 17.9738 81.7955 18.4253V22.6762C81.4831 22.7421 81.0447 22.8173 80.4854 22.9019C79.9261 22.9866 79.2509 23.0336 78.4548 23.0336C77.9559 23.0336 77.5024 22.9913 77.0943 22.9113C76.6861 22.8267 76.3385 22.695 76.0412 22.5069C75.7489 22.3188 75.5222 22.0743 75.366 21.7734C75.2098 21.4724 75.1292 21.1009 75.1292 20.6636C75.1292 20.2451 75.2198 19.8877 75.4012 19.5914C75.5826 19.2999 75.8245 19.0648 76.1268 18.8908C76.4292 18.7168 76.7768 18.5898 77.1698 18.5146C77.5629 18.4346 77.966 18.397 78.3893 18.397C78.6714 18.397 78.9234 18.4064 79.1451 18.4299C79.3668 18.4535 79.5431 18.4817 79.6791 18.5193V18.3265C79.6791 17.9785 79.5683 17.7011 79.3416 17.4895C79.1148 17.2779 78.7268 17.1744 78.1675 17.1744C77.7946 17.1744 77.4268 17.1979 77.064 17.2496C76.7013 17.3014 76.3889 17.3719 76.1218 17.4612L75.8447 15.8154C75.9706 15.7778 76.1319 15.7402 76.3234 15.6978C76.5148 15.6555 76.7214 15.6226 76.9482 15.5897C77.1749 15.5568 77.4117 15.5286 77.6586 15.505C77.9206 15.4862 78.1726 15.4768 78.4295 15.4768ZM78.6059 21.4583C78.8225 21.4583 79.0292 21.4536 79.2257 21.4442C79.4222 21.4348 79.5784 21.4207 79.6943 21.4019V19.8501C79.6086 19.8313 79.4725 19.8125 79.2962 19.7936C79.1198 19.7748 78.9586 19.7654 78.8125 19.7654C78.6059 19.7654 78.4144 19.7748 78.233 19.7983C78.0516 19.8219 77.8904 19.8642 77.7544 19.93C77.6183 19.9958 77.5075 20.0805 77.4319 20.1887C77.3513 20.2968 77.316 20.4379 77.316 20.6025C77.316 20.9222 77.4319 21.1432 77.6636 21.2655C77.8853 21.3972 78.2028 21.4583 78.6059 21.4583Z" fill="#413E43"/>
<path d="M90.5987 22.6527C90.4022 22.7092 90.1754 22.7609 89.9235 22.8126C89.6665 22.8643 89.3994 22.9067 89.1223 22.9443C88.8452 22.9819 88.558 23.0101 88.2708 23.0336C87.9836 23.0571 87.7064 23.0665 87.4394 23.0665C86.8045 23.0665 86.2351 22.9819 85.7363 22.8079C85.2374 22.6339 84.8142 22.3847 84.4715 22.0602C84.1289 21.7357 83.8669 21.3408 83.6855 20.8799C83.5041 20.4191 83.4134 19.8971 83.4134 19.3234C83.4134 18.7403 83.494 18.2089 83.6502 17.7387C83.8064 17.2685 84.0332 16.8688 84.3254 16.5396C84.6177 16.2104 84.9804 15.9612 85.4037 15.7872C85.832 15.6132 86.3157 15.5286 86.8649 15.5286C87.1673 15.5286 87.4394 15.5568 87.6812 15.6132C87.9231 15.6696 88.165 15.7449 88.4068 15.8483V12.5849L90.5987 12.2557V22.6527ZM85.6456 19.22C85.6456 19.8501 85.7967 20.3579 86.099 20.7435C86.4014 21.1291 86.8549 21.3219 87.4494 21.3219C87.646 21.3219 87.8273 21.3172 87.9936 21.3031C88.1599 21.289 88.296 21.2749 88.4068 21.2561V17.5365C88.2708 17.4566 88.0894 17.386 87.8727 17.3296C87.651 17.2732 87.4293 17.2497 87.2026 17.2497C86.1646 17.245 85.6456 17.9033 85.6456 19.22Z" fill="#413E43"/>
<path d="M95.4354 15.4768C96.0803 15.4768 96.6195 15.5474 97.0529 15.6837C97.4862 15.8201 97.8288 16.0176 98.0908 16.2715C98.3528 16.5255 98.5342 16.8405 98.64 17.2026C98.7458 17.5694 98.8013 17.9738 98.8013 18.4253V22.6762C98.4889 22.7421 98.0505 22.8173 97.4912 22.9019C96.9319 22.9866 96.2567 23.0336 95.4606 23.0336C94.9618 23.0336 94.5082 22.9913 94.1001 22.9113C93.6919 22.8267 93.3443 22.695 93.047 22.5069C92.7548 22.3188 92.528 22.0743 92.3718 21.7734C92.2156 21.4724 92.135 21.1009 92.135 20.6636C92.135 20.2451 92.2257 19.8877 92.4071 19.5914C92.5885 19.2999 92.8304 19.0648 93.1327 18.8908C93.435 18.7168 93.7827 18.5898 94.1757 18.5146C94.5687 18.4346 94.9718 18.397 95.3951 18.397C95.6773 18.397 95.9292 18.4064 96.1509 18.4299C96.3726 18.4535 96.5489 18.4817 96.685 18.5193V18.3265C96.685 17.9785 96.5742 17.7011 96.3474 17.4895C96.1207 17.2779 95.7276 17.1744 95.1733 17.1744C94.8005 17.1744 94.4327 17.1979 94.0699 17.2496C93.7071 17.3014 93.3947 17.3719 93.1276 17.4612L92.8505 15.8154C92.9764 15.7778 93.1377 15.7402 93.3292 15.6978C93.5207 15.6555 93.7273 15.6226 93.954 15.5897C94.1807 15.5568 94.4175 15.5286 94.6644 15.505C94.9315 15.4862 95.1834 15.4768 95.4354 15.4768ZM95.6117 21.4583C95.8284 21.4583 96.035 21.4536 96.2315 21.4442C96.428 21.4348 96.5842 21.4207 96.7001 21.4019V19.8501C96.6144 19.8313 96.4784 19.8125 96.302 19.7936C96.1257 19.7748 95.9644 19.7654 95.8183 19.7654C95.6117 19.7654 95.4202 19.7748 95.2389 19.7983C95.0575 19.8219 94.8962 19.8642 94.7602 19.93C94.6241 19.9958 94.5133 20.0805 94.4377 20.1887C94.3571 20.2968 94.3218 20.4379 94.3218 20.6025C94.3218 20.9222 94.4377 21.1432 94.6695 21.2655C94.8962 21.3972 95.2086 21.4583 95.6117 21.4583Z" fill="#413E43"/>
<path d="M100.787 15.9143C101.159 15.8155 101.638 15.7215 102.228 15.6321C102.817 15.5475 103.432 15.5005 104.082 15.5005C104.737 15.5005 105.286 15.5804 105.72 15.7403C106.158 15.9002 106.501 16.1259 106.758 16.4174C107.015 16.709 107.196 17.057 107.302 17.4614C107.408 17.8658 107.463 18.3125 107.463 18.8063V22.8786H105.271V19.0508C105.271 18.3924 105.175 17.9269 104.994 17.6495C104.808 17.3767 104.46 17.2357 103.951 17.2357C103.795 17.2357 103.628 17.2404 103.452 17.2545C103.276 17.2686 103.12 17.2827 102.983 17.3015V22.8691H100.792V15.9143H100.787Z" fill="#413E43"/>
<path d="M116.679 19.2623C116.679 19.8313 116.589 20.3485 116.412 20.8188C116.236 21.289 115.979 21.6934 115.646 22.0273C115.314 22.3612 114.916 22.6198 114.447 22.8032C113.983 22.9866 113.459 23.0759 112.88 23.0759C112.311 23.0759 111.797 22.9866 111.328 22.8032C110.865 22.6198 110.461 22.3612 110.129 22.0273C109.796 21.6934 109.534 21.289 109.348 20.8188C109.161 20.3485 109.071 19.8266 109.071 19.2623C109.071 18.6933 109.166 18.1807 109.358 17.7105C109.549 17.2449 109.811 16.8452 110.154 16.5161C110.492 16.1869 110.895 15.933 111.358 15.7496C111.822 15.5662 112.331 15.4768 112.88 15.4768C113.439 15.4768 113.948 15.5662 114.417 15.7496C114.88 15.933 115.284 16.1869 115.616 16.5161C115.949 16.8452 116.211 17.2449 116.397 17.7105C116.583 18.1807 116.679 18.6933 116.679 19.2623ZM114.442 19.2623C114.442 18.6322 114.306 18.1337 114.039 17.7716C113.767 17.4095 113.384 17.2308 112.885 17.2308C112.386 17.2308 111.998 17.4095 111.726 17.7716C111.454 18.1337 111.313 18.6275 111.313 19.2623C111.313 19.8924 111.449 20.3956 111.726 20.7624C111.998 21.1338 112.386 21.3172 112.885 21.3172C113.384 21.3172 113.767 21.1338 114.039 20.7624C114.306 20.3956 114.442 19.8924 114.442 19.2623Z" fill="#413E43"/>
<path d="M50.0465 31.1415C50.0465 31.7434 49.9457 32.27 49.7391 32.7168C49.5376 33.1635 49.2503 33.5397 48.8825 33.8359C48.5146 34.1369 48.0763 34.3579 47.5674 34.5084C47.0584 34.6589 46.4992 34.7341 45.8895 34.7341C45.5821 34.7341 45.2647 34.72 44.9321 34.6871C44.5995 34.6589 44.3023 34.6118 44.0503 34.5507V27.751C44.3023 27.6852 44.5995 27.6335 44.9321 27.6052C45.2647 27.577 45.5872 27.5582 45.8895 27.5582C46.4992 27.5582 47.0584 27.6335 47.5674 27.7839C48.0763 27.9344 48.5146 28.1554 48.8825 28.4564C49.2503 28.7573 49.5376 29.1288 49.7391 29.5756C49.9457 30.0223 50.0465 30.5443 50.0465 31.1415ZM44.791 34.0616C44.8363 34.0663 44.9472 34.0805 45.1236 34.104C45.2999 34.1228 45.5871 34.1369 45.9801 34.1369C46.5243 34.1369 47.0031 34.0664 47.4112 33.93C47.8193 33.7889 48.1619 33.5914 48.434 33.3328C48.7111 33.0741 48.9178 32.7591 49.0538 32.3923C49.1899 32.0208 49.2604 31.607 49.2604 31.1461C49.2604 30.6853 49.1899 30.2715 49.0538 29.9047C48.9178 29.5379 48.7061 29.2276 48.434 28.969C48.1569 28.7103 47.8143 28.5128 47.4112 28.3717C47.0031 28.2307 46.5294 28.1648 45.9801 28.1648C45.5871 28.1648 45.2999 28.1742 45.1236 28.193C44.9472 28.2119 44.8363 28.226 44.791 28.2354V34.0616Z" fill="#413E43"/>
<path d="M52.5356 27.8214C52.5356 27.9766 52.4852 28.1035 52.3844 28.1929C52.2837 28.2822 52.1577 28.3292 52.0116 28.3292C51.8655 28.3292 51.7445 28.2822 51.6387 28.1929C51.5379 28.1035 51.4875 27.9766 51.4875 27.8214C51.4875 27.6662 51.5379 27.5392 51.6387 27.4499C51.7395 27.3605 51.8655 27.3135 52.0116 27.3135C52.1577 27.3135 52.2786 27.3605 52.3844 27.4499C52.4802 27.5392 52.5356 27.6662 52.5356 27.8214ZM52.3693 34.6728H51.6588V29.4108H52.3693V34.6728Z" fill="#413E43"/>
<path d="M57.9222 34.0614C57.8768 34.0943 57.8113 34.1367 57.7257 34.179C57.64 34.2213 57.5291 34.2684 57.4032 34.3154C57.2772 34.3624 57.1311 34.4 56.9648 34.4329C56.7985 34.4659 56.6171 34.48 56.4156 34.48C56.0881 34.48 55.7706 34.4329 55.4683 34.3389C55.1609 34.2448 54.8938 34.0944 54.6671 33.8922C54.4404 33.6899 54.2539 33.4266 54.1179 33.1022C53.9818 32.7777 53.9113 32.3874 53.9113 31.9265C53.9113 31.5551 53.9718 31.2071 54.0978 30.8873C54.2237 30.5675 54.4001 30.2901 54.6268 30.0597C54.8536 29.8246 55.1357 29.6412 55.4683 29.5095C55.8009 29.3778 56.1737 29.312 56.5869 29.312C57.1109 29.312 57.5292 29.3449 57.8466 29.4108C58.164 29.4766 58.421 29.5377 58.6276 29.5989V34.4047C58.6276 35.19 58.4109 35.7543 57.9726 36.0882C57.5342 36.422 56.8791 36.5913 55.9973 36.5913C55.6346 36.5913 55.3071 36.5678 55.0098 36.5161C54.7175 36.4644 54.4605 36.4079 54.2539 36.3374L54.395 35.7355C54.5714 35.8107 54.8082 35.8766 55.1105 35.9283C55.4128 35.9847 55.7152 36.0082 56.0226 36.0082C56.6927 36.0082 57.1764 35.886 57.4788 35.6461C57.7811 35.4063 57.9323 34.9925 57.9323 34.4094V34.0614H57.9222ZM57.9121 30.0503C57.7861 30.0174 57.63 29.9844 57.4334 29.9515C57.2369 29.9233 56.9547 29.9045 56.5919 29.9045C56.2846 29.9045 56.0175 29.9515 55.7807 30.0503C55.5439 30.149 55.3423 30.2901 55.176 30.4688C55.0097 30.6475 54.8838 30.8638 54.7931 31.1083C54.7074 31.3576 54.6621 31.6303 54.6621 31.9265C54.6621 32.2745 54.7125 32.5708 54.8132 32.8153C54.914 33.0645 55.0501 33.2667 55.2113 33.4219C55.3726 33.5771 55.564 33.6899 55.7706 33.7652C55.9823 33.8357 56.1939 33.8734 56.4156 33.8734C56.733 33.8734 57.0303 33.831 57.2923 33.7417C57.5594 33.6523 57.7609 33.5536 57.9071 33.436V30.0503H57.9121Z" fill="#413E43"/>
<path d="M61.3685 27.8214C61.3685 27.9766 61.3181 28.1035 61.2174 28.1929C61.1166 28.2822 60.9906 28.3292 60.8445 28.3292C60.6984 28.3292 60.5774 28.2822 60.4716 28.1929C60.3709 28.1035 60.3205 27.9766 60.3205 27.8214C60.3205 27.6662 60.3709 27.5392 60.4716 27.4499C60.5724 27.3605 60.6984 27.3135 60.8445 27.3135C60.9906 27.3135 61.1115 27.3605 61.2174 27.4499C61.3181 27.5392 61.3685 27.6662 61.3685 27.8214ZM61.2023 34.6728H60.4918V29.4108H61.2023V34.6728Z" fill="#413E43"/>
<path d="M63.7468 29.4107H65.9941V29.9702H63.7468V32.7682C63.7468 33.0691 63.772 33.3089 63.8274 33.497C63.8829 33.6851 63.9584 33.8262 64.0642 33.9297C64.1701 34.0331 64.291 34.099 64.4371 34.1319C64.5832 34.1648 64.7445 34.1836 64.9158 34.1836C65.2131 34.1836 65.4549 34.1507 65.6363 34.0848C65.8177 34.019 65.9589 33.9626 66.0596 33.9062L66.236 34.4563C66.1352 34.5175 65.9538 34.588 65.7018 34.6633C65.4449 34.7432 65.1728 34.7808 64.8755 34.7808C64.5278 34.7808 64.2356 34.7385 63.9987 34.6538C63.7619 34.5692 63.5755 34.4422 63.4294 34.2682C63.2832 34.0942 63.1875 33.8779 63.1321 33.624C63.0716 33.3654 63.0464 33.0597 63.0464 32.707V27.8636L63.7569 27.7413V29.4107H63.7468Z" fill="#413E43"/>
<path d="M69.0127 29.2884C69.3855 29.2884 69.6979 29.3354 69.9549 29.4341C70.2119 29.5329 70.4235 29.6693 70.5797 29.8433C70.741 30.0172 70.8568 30.2194 70.9274 30.4593C70.9979 30.6991 71.0383 30.953 71.0383 31.2352V34.5551C70.9677 34.5739 70.8619 34.5974 70.7208 34.6209C70.5848 34.6444 70.4235 34.6679 70.2421 34.6961C70.0607 34.7244 69.8592 34.7431 69.6375 34.762C69.4158 34.7808 69.189 34.7855 68.9572 34.7855C68.66 34.7855 68.3828 34.7573 68.1359 34.6961C67.884 34.635 67.6673 34.5363 67.4809 34.4046C67.2944 34.2729 67.1483 34.1036 67.0425 33.8967C66.9367 33.6898 66.8863 33.4359 66.8863 33.1397C66.8863 32.8528 66.9468 32.6083 67.0627 32.4061C67.1786 32.2039 67.3448 32.0346 67.5514 31.9029C67.758 31.7712 68.015 31.6725 68.3022 31.6114C68.5944 31.5502 68.9068 31.522 69.2495 31.522C69.3503 31.522 69.4561 31.5267 69.572 31.5361C69.6828 31.5455 69.7937 31.5596 69.8995 31.5784C70.0053 31.5973 70.096 31.6114 70.1715 31.6302C70.2471 31.649 70.3026 31.6631 70.3278 31.6772V31.3527C70.3278 31.1693 70.3127 30.9906 70.2824 30.8167C70.2522 30.6427 70.1917 30.4875 70.091 30.3464C69.9952 30.2053 69.8541 30.0972 69.6778 30.0125C69.5014 29.9279 69.2646 29.8856 68.9723 29.8856C68.5591 29.8856 68.2467 29.9138 68.0452 29.9655C67.8437 30.022 67.6925 30.0643 67.5967 30.0972L67.501 29.5188C67.627 29.4624 67.8134 29.4153 68.0755 29.3683C68.3375 29.3119 68.6499 29.2884 69.0127 29.2884ZM69.0782 34.193C69.3553 34.193 69.5971 34.1836 69.8037 34.1695C70.0103 34.1507 70.1867 34.1319 70.3328 34.1036V32.2509C70.2522 32.218 70.1262 32.1804 69.9499 32.1427C69.7735 32.1051 69.5367 32.0863 69.2293 32.0863C69.0529 32.0863 68.8716 32.1004 68.6851 32.1239C68.4937 32.1474 68.3223 32.1992 68.1611 32.2744C67.9998 32.3543 67.8688 32.4578 67.768 32.5942C67.6673 32.7305 67.6169 32.9092 67.6169 33.1349C67.6169 33.3324 67.6522 33.497 67.7227 33.6334C67.7933 33.7698 67.889 33.8779 68.015 33.9579C68.141 34.0378 68.2971 34.0989 68.4735 34.1366C68.6498 34.1742 68.8514 34.193 69.0782 34.193Z" fill="#413E43"/>
<path d="M74.2779 34.762C74.036 34.7573 73.8294 34.7244 73.6531 34.6774C73.4767 34.6257 73.3255 34.5504 73.2046 34.4423C73.0837 34.3388 72.993 34.2025 72.9325 34.0332C72.872 33.8686 72.8418 33.657 72.8418 33.4078V26.8949L73.5523 26.7726V33.3889C73.5523 33.5535 73.5674 33.6805 73.6027 33.7792C73.6329 33.878 73.6833 33.9579 73.7488 34.0144C73.8143 34.0708 73.8999 34.1131 74.0058 34.1413C74.1116 34.1696 74.2375 34.193 74.3837 34.2119L74.2779 34.762Z" fill="#413E43"/>
<path d="M4.84858 43.3482C4.22377 43.3482 3.7199 42.8779 3.7199 42.2948V28.1077C3.7199 27.5246 4.22377 27.0543 4.84858 27.0543C5.47339 27.0543 5.97732 27.5246 5.97732 28.1077V42.2948C5.97732 42.8779 5.47339 43.3482 4.84858 43.3482Z" fill="#EC6608"/>
<path d="M9.64548 41.5285C9.02067 41.5285 8.5168 41.0583 8.5168 40.4752V31.3807C8.5168 30.7976 9.02067 30.3274 9.64548 30.3274C10.2703 30.3274 10.7742 30.7976 10.7742 31.3807V40.4752C10.7742 41.0583 10.2652 41.5285 9.64548 41.5285Z" fill="#EC6608"/>
<path d="M14.4374 39.2009C13.8126 39.2009 13.3087 38.7307 13.3087 38.1476V33.243C13.3087 32.6599 13.8126 32.1896 14.4374 32.1896C15.0622 32.1896 15.5661 32.6599 15.5661 33.243V38.1476C15.5661 38.7307 15.0622 39.2009 14.4374 39.2009Z" fill="#EC6608"/>
<path d="M12.6688 28.8236C12.6688 27.9113 13.4599 27.1683 14.4425 27.1683C15.42 27.1683 16.2162 27.9066 16.2162 28.8236C16.2162 29.7359 15.4251 30.4788 14.4425 30.4788C13.4599 30.4788 12.6688 29.7359 12.6688 28.8236Z" fill="#EC6608"/>
<path d="M7.84156 27.0359C7.84156 26.1237 8.63265 25.3807 9.61521 25.3807C10.5978 25.3807 11.3889 26.119 11.3889 27.0359C11.3889 27.9482 10.5978 28.6912 9.61521 28.6912C8.63265 28.6912 7.84156 27.9529 7.84156 27.0359Z" fill="#EC6608"/>
<path d="M3.13049 23.73C3.13049 22.8177 3.92159 22.0748 4.90415 22.0748C5.88167 22.0748 6.67774 22.813 6.67774 23.73C6.67774 24.6423 5.88671 25.3852 4.90415 25.3852C3.92159 25.3852 3.13049 24.6423 3.13049 23.73Z" fill="#EC6608"/>
<path d="M82.5919 29.4716C82.5919 29.7302 82.5365 29.9794 82.4306 30.2146C82.3198 30.4544 82.1787 30.6801 82.0074 30.9011C81.831 31.1221 81.6345 31.3337 81.4179 31.5359C81.2012 31.7381 80.9845 31.931 80.7729 32.1144C80.662 32.2084 80.5462 32.3166 80.4202 32.4341C80.2942 32.5517 80.1732 32.6739 80.0574 32.7962C79.9415 32.9184 79.8356 33.0313 79.7449 33.1395C79.6543 33.2429 79.5988 33.3323 79.5736 33.3981H82.8236V34.6724H77.7849C77.7697 34.5972 77.7647 34.5032 77.7647 34.3856C77.7647 34.268 77.7647 34.1881 77.7647 34.1411C77.7647 33.8166 77.8202 33.5157 77.936 33.2476C78.0469 32.9749 78.1981 32.7257 78.3795 32.4905C78.5609 32.2554 78.7674 32.0391 78.9942 31.8322C79.2209 31.63 79.4527 31.4231 79.6744 31.2209C79.8508 31.0657 80.012 30.9152 80.1632 30.7789C80.3144 30.6378 80.4504 30.5061 80.5663 30.3697C80.6822 30.2381 80.7729 30.1064 80.8384 29.9747C80.9039 29.8431 80.9391 29.7067 80.9391 29.575C80.9391 29.2788 80.8485 29.0672 80.6671 28.9449C80.4857 28.8226 80.2589 28.7615 79.9918 28.7615C79.7953 28.7615 79.614 28.7897 79.4426 28.8462C79.2713 28.9026 79.1152 28.9731 78.9741 29.0484C78.833 29.1283 78.712 29.2035 78.6112 29.2835C78.5105 29.3634 78.4349 29.4245 78.3845 29.4716L77.5783 28.4135C77.8958 28.1361 78.2686 27.9057 78.6969 27.727C79.1202 27.5483 79.5787 27.459 80.0674 27.459C80.5108 27.459 80.8938 27.506 81.2112 27.6C81.5287 27.6941 81.7957 27.8305 82.0023 27.9997C82.2089 28.1737 82.3601 28.3853 82.4609 28.6298C82.5415 28.8791 82.5919 29.1565 82.5919 29.4716Z" fill="#EC6608"/>
<path d="M85.7308 33.8688C85.7308 34.1745 85.625 34.4049 85.4184 34.5648C85.2118 34.7246 84.975 34.8046 84.713 34.8046C84.4509 34.8046 84.2192 34.7246 84.0076 34.5648C83.801 34.4049 83.6952 34.1745 83.6952 33.8688C83.6952 33.5632 83.801 33.3327 84.0076 33.1729C84.2142 33.013 84.4509 32.933 84.713 32.933C84.975 32.933 85.2068 33.013 85.4184 33.1729C85.625 33.328 85.7308 33.5632 85.7308 33.8688Z" fill="#EC6608"/>
<path d="M91.8836 31.1274C91.8836 32.3171 91.6417 33.2247 91.158 33.8595C90.6743 34.4944 90.0092 34.8094 89.1576 34.8094C88.3061 34.8094 87.641 34.4944 87.1572 33.8595C86.6735 33.2247 86.4316 32.3124 86.4316 31.1274C86.4316 30.5349 86.4971 30.013 86.6231 29.5615C86.7491 29.1054 86.9355 28.7245 87.1723 28.4095C87.4142 28.0991 87.7014 27.8593 88.034 27.6947C88.3665 27.5301 88.7444 27.4501 89.1576 27.4501C90.0092 27.4501 90.6743 27.7652 91.158 28.4C91.6417 29.0396 91.8836 29.9471 91.8836 31.1274ZM90.2258 31.1274C90.2258 30.7748 90.2057 30.455 90.1704 30.1634C90.1351 29.8766 90.0747 29.6274 89.9941 29.4158C89.9135 29.2041 89.8026 29.0443 89.6665 28.9267C89.5305 28.8091 89.3592 28.7527 89.1526 28.7527C88.951 28.7527 88.7797 28.8091 88.6437 28.9267C88.5076 29.0443 88.4018 29.2041 88.3161 29.4158C88.2305 29.6274 88.17 29.8766 88.1347 30.1634C88.0995 30.4503 88.0793 30.7748 88.0793 31.1274C88.0793 31.4801 88.0995 31.8046 88.1347 32.0961C88.17 32.3877 88.2305 32.6369 88.3161 32.8485C88.4018 33.0601 88.5076 33.22 88.6437 33.3376C88.7797 33.4551 88.946 33.5116 89.1526 33.5116C89.3541 33.5116 89.5255 33.4551 89.6665 33.3376C89.8026 33.22 89.9135 33.0601 89.9941 32.8485C90.0747 32.6369 90.1301 32.3877 90.1704 32.0961C90.2057 31.8046 90.2258 31.4801 90.2258 31.1274Z" fill="#EC6608"/>
</svg>
