<svg width="366" height="48" viewBox="0 0 366 48" fill="none" xmlns="http://www.w3.org/2000/svg">
<path d="M48.0944 21.9732C48.7297 19.469 48.5286 16.8282 47.5211 14.4467C46.5338 12.0595 44.7932 10.053 42.5593 8.72707C43.2398 11.3359 43.1168 14.0867 42.2062 16.6257C44.6645 17.7868 46.715 19.6513 48.0931 21.9784" fill="#FED422"/>
<path d="M40.5944 40.2269C41.6217 37.5803 41.6767 34.66 40.7499 31.9771C38.0985 32.8936 35.227 32.9811 32.5238 32.2278C33.2887 34.9055 33.199 37.7519 32.2668 40.3771C34.9745 41.2965 37.9223 41.2434 40.5944 40.2269Z" fill="#FF8300"/>
<path d="M24.22 35.6184C22.8504 38.0516 20.7551 40.006 18.221 41.214C19.4777 43.763 21.6007 45.7918 24.2173 46.9441C26.8344 45.7933 28.9581 43.7653 30.215 41.2166C27.6818 40.0075 25.5879 38.0521 24.22 35.6184Z" fill="#FF8300"/>
<path d="M15.9281 32.2124C13.2224 32.9673 10.348 32.8821 7.69272 31.9682C6.76194 34.6508 6.81419 37.5724 7.84032 40.2206C10.5131 41.2401 13.4631 41.2937 16.1719 40.3721C15.2424 37.7423 15.1573 34.892 15.9281 32.2124Z" fill="#FF8300"/>
<path d="M16.1796 7.62307C13.4724 6.69589 10.5213 6.74815 7.84932 7.7706C6.82091 10.4181 6.76679 13.3399 7.69645 16.023C10.346 15.0998 13.2191 15.0117 15.9213 15.771C15.1579 13.0932 15.2499 10.247 16.1848 7.62307" fill="#FF8300"/>
<path d="M24.2411 1.05566C21.6213 2.20654 19.4938 4.23415 18.2317 6.78313C20.7638 7.98695 22.8579 9.93743 24.2266 12.367C25.5963 9.93673 27.6919 7.98614 30.2256 6.78313C28.9714 4.23713 26.8529 2.20955 24.2411 1.05566Z" fill="#FF8300"/>
<path d="M40.7539 16.0317C41.6846 13.3504 41.6324 10.4301 40.6063 7.78319C37.9351 6.76562 34.9879 6.71063 32.28 7.62783C33.212 10.2527 33.3008 13.0989 32.5344 15.7758C35.2375 15.0201 38.1104 15.1113 40.7592 16.0369" fill="#FF8300"/>
<path d="M6.8452 18.0534C4.27314 19.2991 2.22587 21.4021 1.0624 23.9936C2.22599 26.5854 4.27318 28.6888 6.8452 29.9352C8.06499 27.4283 10.0362 25.3556 12.4896 24.0002C10.0333 22.643 8.06148 20.5656 6.8452 18.0534Z" fill="#FF8300"/>
<path d="M41.6026 18.0623C40.3861 20.5734 38.4143 22.6495 35.9582 24.0052C38.4111 25.3622 40.3814 27.4363 41.6 29.9441C44.173 28.6995 46.2213 26.5968 47.3854 24.0052C46.2226 21.4126 44.1752 19.3086 41.6026 18.0623Z" fill="#FF8300"/>
<path d="M33.8771 0.924683C31.4732 -0.063976 28.8125 -0.262577 26.2862 0.358073C28.6298 1.72451 30.5066 3.75479 31.675 6.18737C34.2433 5.28896 37.0243 5.17256 39.6599 5.85315C38.322 3.63326 36.2927 1.90373 33.8771 0.924683Z" fill="#FED422"/>
<path d="M8.80101 5.83636C11.4357 5.15913 14.2148 5.2801 16.7794 6.18364C17.9541 3.74991 19.8368 1.71983 22.1853 0.35434C19.6557 -0.265862 16.9922 -0.0682366 14.5841 0.918327C12.176 1.90489 10.1495 3.62736 8.80101 5.83636Z" fill="#FED422"/>
<path d="M5.89502 8.71189C3.66538 10.046 1.92526 12.0521 0.929313 14.4365C-0.0666383 16.8209 -0.266146 19.4585 0.359983 21.9633C1.7381 19.6376 3.78688 17.7735 6.24294 16.6105C5.33371 14.0692 5.213 11.3165 5.89634 8.70667" fill="#FED422"/>
<path d="M6.23881 31.3733C3.78346 30.2103 1.73553 28.3461 0.358494 26.0206C-0.268463 28.5257 -0.0693649 31.164 0.926636 33.549C1.92264 35.9339 3.66322 37.9404 5.89353 39.2745C5.21016 36.6645 5.33227 33.9114 6.24409 31.3707" fill="#FED422"/>
<path d="M8.79167 42.1555C10.1383 44.364 12.1625 46.0881 14.5686 47.0761C16.9746 48.064 19.6365 48.2639 22.1654 47.6466C19.8193 46.28 17.9404 44.2482 16.7714 41.8134C14.205 42.7111 11.4269 42.8293 8.79167 42.1555Z" fill="#FED422"/>
<path d="M26.268 47.6466C28.7974 48.2663 31.4607 48.0673 33.8677 47.079C36.2747 46.0906 38.2991 44.3648 39.6444 42.1541C37.0098 42.8276 34.2326 42.7094 31.666 41.8147C30.4939 44.2501 28.6118 46.2815 26.2627 47.6466" fill="#FED422"/>
<path d="M47.5159 33.5649C48.5245 31.1839 48.727 28.5431 48.0931 26.0384C46.7128 28.3627 44.6615 30.2243 42.2036 31.3833C43.1093 33.9251 43.2272 36.6772 42.5423 39.2859C44.781 37.9619 46.5261 35.9545 47.5159 33.5649Z" fill="#FED422"/>
<path d="M30.8303 8.21836C28.3176 9.44681 26.3092 11.4959 25.1437 14.0202C27.188 14.1993 29.1273 14.997 30.6985 16.305C31.6806 13.7048 31.7272 10.8486 30.8303 8.21836Z" fill="#E43D30"/>
<path d="M17.6305 8.21836C16.7307 10.8475 16.7736 13.7035 17.7517 16.305C19.3268 14.9967 21.2705 14.2012 23.3184 14.0268C22.1534 11.5 20.1445 9.44857 17.6305 8.21836Z" fill="#E43D30"/>
<path d="M14.1579 23.096C14.337 21.0678 15.1428 19.1435 16.4655 17.5852C13.8414 16.6091 10.9571 16.5629 8.30262 17.4547C9.54275 19.9446 11.6117 21.9347 14.1605 23.0894" fill="#E43D30"/>
<path d="M8.2949 30.5306C10.9471 31.4203 13.8275 31.3788 16.4525 30.4131C15.1349 28.8545 14.3338 26.9317 14.1581 24.9062C11.6097 26.0584 9.53936 28.0444 8.2949 30.5306Z" fill="#E43D30"/>
<path d="M17.6227 39.7741C20.1309 38.5449 22.1363 36.4988 23.3027 33.9788C21.2582 33.8014 19.3185 33.0041 17.7479 31.6954C16.7712 34.2942 16.727 37.1468 17.6227 39.7741Z" fill="#E43D30"/>
<path d="M25.1386 33.9799C26.3035 36.5004 28.3081 38.5471 30.8159 39.7766C31.714 37.1516 31.6731 34.3004 30.7 31.7018C29.1264 33.009 27.1846 33.8045 25.1386 33.9799Z" fill="#E43D30"/>
<path d="M34.2976 24.9113C34.1195 26.9383 33.3151 28.8616 31.994 30.4195C34.6167 31.3848 37.4948 31.4267 40.145 30.5383C38.9052 28.0536 36.8406 26.0669 34.2976 24.9113Z" fill="#E43D30"/>
<path d="M31.9927 17.5846C33.3134 19.1439 34.1181 21.0677 34.2976 23.0954C36.8429 21.941 38.9092 19.9535 40.149 17.4671C37.4979 16.5731 34.6164 16.6146 31.9927 17.5846Z" fill="#E43D30"/>
<path d="M24.2278 15.5685C22.544 15.5685 20.898 16.0631 19.498 16.9898C18.0979 17.9166 17.0067 19.2338 16.3624 20.7748C15.718 22.3159 15.5494 24.0117 15.8779 25.6477C16.2064 27.2837 17.0172 28.7865 18.2079 29.966C19.3985 31.1455 20.9154 31.9488 22.5669 32.2742C24.2183 32.5996 25.9301 32.4326 27.4857 31.7942C29.0413 31.1559 30.3709 30.0749 31.3064 28.688C32.2419 27.301 32.7412 25.6704 32.7412 24.0024C32.7387 21.7663 31.841 19.6225 30.245 18.0414C28.6489 16.4602 26.4849 15.5709 24.2278 15.5685Z" fill="#E43D30"/>
<path d="M71.3527 20.1728C71.8977 20.1728 72.3436 20.1319 72.6904 20.0501C73.0537 19.9519 73.3427 19.8292 73.5574 19.6819C73.7721 19.5183 73.9207 19.3302 74.0033 19.1175C74.0859 18.9048 74.1271 18.6676 74.1271 18.4058C74.1271 17.8496 73.8629 17.3915 73.3344 17.0316C72.806 16.6553 71.8977 16.2545 70.6095 15.8291C70.048 15.6328 69.4865 15.4119 68.925 15.1665C68.3635 14.9047 67.8598 14.5857 67.4139 14.2094C66.9681 13.8168 66.6047 13.3505 66.324 12.8106C66.0432 12.2544 65.9029 11.5836 65.9029 10.7983C65.9029 10.013 66.0515 9.3095 66.3488 8.68781C66.646 8.04975 67.0671 7.50986 67.6121 7.06813C68.1571 6.6264 68.8177 6.29102 69.5939 6.06197C70.3701 5.81657 71.2453 5.69387 72.2197 5.69387C73.3757 5.69387 74.3749 5.81657 75.2171 6.06197C76.0593 6.30738 76.753 6.57732 77.298 6.87181L76.1832 9.89029C75.7043 9.64489 75.1676 9.4322 74.573 9.25224C73.995 9.05591 73.2932 8.95775 72.4674 8.95775C71.5426 8.95775 70.8738 9.08863 70.4609 9.3504C70.0645 9.5958 69.8664 9.98027 69.8664 10.5038C69.8664 10.8146 69.9407 11.0764 70.0893 11.2891C70.2379 11.5018 70.4444 11.6981 70.7086 11.8781C70.9894 12.0417 71.3031 12.1971 71.6499 12.3443C72.0133 12.4752 72.4096 12.6143 72.839 12.7615C73.7308 13.0887 74.507 13.4159 75.1676 13.7431C75.8281 14.054 76.3731 14.4221 76.8025 14.8475C77.2484 15.2728 77.5787 15.7718 77.7934 16.3444C78.0081 16.9171 78.1154 17.6124 78.1154 18.4304C78.1154 20.0173 77.5539 21.2525 76.4309 22.136C75.3079 23.0031 73.6152 23.4366 71.3527 23.4366C70.593 23.4366 69.9077 23.3876 69.2966 23.2894C68.6856 23.2076 68.1406 23.1013 67.6617 22.9704C67.1993 22.8395 66.7947 22.7004 66.4478 22.5532C66.1176 22.4059 65.8368 22.2669 65.6056 22.136L66.6956 19.093C67.2075 19.3711 67.8351 19.6247 68.5782 19.8537C69.3379 20.0664 70.2627 20.1728 71.3527 20.1728Z" fill="black"/>
<path d="M86.1106 20.5409C86.4739 20.5409 86.8207 20.5327 87.151 20.5163C87.4813 20.5 87.7455 20.4754 87.9437 20.4427V17.6696C87.7951 17.6369 87.5721 17.6042 87.2749 17.5715C86.9776 17.5387 86.7051 17.5224 86.4574 17.5224C86.1106 17.5224 85.7803 17.5469 85.4665 17.596C85.1692 17.6287 84.905 17.7023 84.6738 17.8169C84.4426 17.9314 84.2609 18.0868 84.1288 18.2831C83.9967 18.4795 83.9306 18.7249 83.9306 19.0194C83.9306 19.592 84.1206 19.9928 84.5004 20.2218C84.8967 20.4345 85.4335 20.5409 86.1106 20.5409ZM85.8133 9.84121C86.9033 9.84121 87.8116 9.96391 88.5382 10.2093C89.2649 10.4547 89.8429 10.8065 90.2723 11.2646C90.7181 11.7226 91.0319 12.2789 91.2136 12.9333C91.3952 13.5877 91.4861 14.3158 91.4861 15.1174V22.725C90.9576 22.8395 90.2227 22.9704 89.2814 23.1176C88.34 23.2812 87.2005 23.363 85.8629 23.363C85.0206 23.363 84.2527 23.2894 83.5591 23.1422C82.882 22.9949 82.2957 22.7577 81.8002 22.4305C81.3048 22.0869 80.925 21.6452 80.6607 21.1053C80.3965 20.5654 80.2644 19.9028 80.2644 19.1175C80.2644 18.3649 80.413 17.7269 80.7103 17.2034C81.0241 16.6798 81.4369 16.2626 81.9489 15.9518C82.4608 15.6409 83.0471 15.4201 83.7077 15.2892C84.3683 15.142 85.0536 15.0683 85.7638 15.0683C86.2427 15.0683 86.6638 15.0929 87.0271 15.142C87.407 15.1747 87.7125 15.2238 87.9437 15.2892V14.9456C87.9437 14.3239 87.7538 13.825 87.3739 13.4487C86.9941 13.0724 86.3335 12.8842 85.3922 12.8842C84.7646 12.8842 84.1453 12.9333 83.5343 13.0315C82.9232 13.1133 82.3948 13.236 81.9489 13.3996L81.4782 10.4547C81.6929 10.3893 81.9571 10.3238 82.2709 10.2584C82.6012 10.1766 82.9563 10.1112 83.3361 10.0621C83.716 9.99663 84.1123 9.94755 84.5252 9.91483C84.9545 9.86575 85.3839 9.84121 85.8133 9.84121Z" fill="black"/>
<path d="M94.8237 10.6265C95.4513 10.4465 96.2605 10.2829 97.2514 10.1357C98.2422 9.97209 99.2827 9.89029 100.373 9.89029C101.479 9.89029 102.396 10.0375 103.122 10.332C103.865 10.6101 104.452 11.011 104.881 11.5345C105.311 12.058 105.616 12.6797 105.798 13.3996C105.979 14.1194 106.07 14.9211 106.07 15.8046V23.0931H102.379V16.2463C102.379 15.0683 102.222 14.234 101.908 13.7431C101.595 13.2523 101.008 13.0069 100.15 13.0069C99.8854 13.0069 99.6047 13.0233 99.3074 13.056C99.0102 13.0724 98.7459 13.0969 98.5147 13.1296V23.0931H94.8237V10.6265Z" fill="black"/>
<path d="M124.998 17.3751C124.998 18.2095 124.899 18.9948 124.701 19.731C124.52 20.4672 124.189 21.1135 123.71 21.6697C123.248 22.2096 122.612 22.6432 121.803 22.9704C121.01 23.2812 120.003 23.4366 118.781 23.4366C117.658 23.4366 116.692 23.3058 115.882 23.044C115.073 22.7659 114.404 22.4468 113.876 22.0869L115.164 19.1175C115.643 19.3956 116.155 19.641 116.7 19.8537C117.245 20.0664 117.839 20.1728 118.483 20.1728C119.425 20.1728 120.102 19.9437 120.515 19.4856C120.928 19.0275 121.134 18.2586 121.134 17.1788V6.08651H124.998V17.3751Z" fill="black"/>
<path d="M139.596 22.6514C138.969 22.8313 138.16 22.9949 137.169 23.1422C136.178 23.3058 135.138 23.3876 134.048 23.3876C132.941 23.3876 132.016 23.2403 131.273 22.9458C130.546 22.6514 129.968 22.2423 129.539 21.7188C129.11 21.1789 128.804 20.5409 128.623 19.8047C128.441 19.0684 128.35 18.2586 128.35 17.3751V10.1848H132.041V16.9334C132.041 18.1114 132.198 18.9621 132.512 19.4856C132.825 20.0092 133.412 20.2709 134.271 20.2709C134.535 20.2709 134.815 20.2627 135.113 20.2464C135.41 20.2137 135.674 20.1809 135.905 20.1482V10.1848H139.596V22.6514Z" fill="black"/>
<path d="M148.04 20.5409C148.404 20.5409 148.751 20.5327 149.081 20.5163C149.411 20.5 149.675 20.4754 149.874 20.4427V17.6696C149.725 17.6369 149.502 17.6042 149.205 17.5715C148.907 17.5387 148.635 17.5224 148.387 17.5224C148.04 17.5224 147.71 17.5469 147.396 17.596C147.099 17.6287 146.835 17.7023 146.604 17.8169C146.372 17.9314 146.191 18.0868 146.059 18.2831C145.927 18.4795 145.86 18.7249 145.86 19.0194C145.86 19.592 146.05 19.9928 146.43 20.2218C146.827 20.4345 147.363 20.5409 148.04 20.5409ZM147.743 9.84121C148.833 9.84121 149.741 9.96391 150.468 10.2093C151.195 10.4547 151.773 10.8065 152.202 11.2646C152.648 11.7226 152.962 12.2789 153.143 12.9333C153.325 13.5877 153.416 14.3158 153.416 15.1174V22.725C152.887 22.8395 152.153 22.9704 151.211 23.1176C150.27 23.2812 149.13 23.363 147.793 23.363C146.95 23.363 146.183 23.2894 145.489 23.1422C144.812 22.9949 144.226 22.7577 143.73 22.4305C143.235 22.0869 142.855 21.6452 142.591 21.1053C142.326 20.5654 142.194 19.9028 142.194 19.1175C142.194 18.3649 142.343 17.7269 142.64 17.2034C142.954 16.6798 143.367 16.2626 143.879 15.9518C144.391 15.6409 144.977 15.4201 145.638 15.2892C146.298 15.142 146.983 15.0683 147.694 15.0683C148.173 15.0683 148.594 15.0929 148.957 15.142C149.337 15.1747 149.642 15.2238 149.874 15.2892V14.9456C149.874 14.3239 149.684 13.825 149.304 13.4487C148.924 13.0724 148.263 12.8842 147.322 12.8842C146.694 12.8842 146.075 12.9333 145.464 13.0315C144.853 13.1133 144.325 13.236 143.879 13.3996L143.408 10.4547C143.623 10.3893 143.887 10.3238 144.201 10.2584C144.531 10.1766 144.886 10.1112 145.266 10.0621C145.646 9.99663 146.042 9.94755 146.455 9.91483C146.884 9.86575 147.314 9.84121 147.743 9.84121Z" fill="black"/>
<path d="M156.754 10.6265C157.381 10.4465 158.19 10.2829 159.181 10.1357C160.172 9.97209 161.212 9.89029 162.302 9.89029C163.409 9.89029 164.326 10.0375 165.052 10.332C165.795 10.6101 166.382 11.011 166.811 11.5345C167.24 12.058 167.546 12.6797 167.728 13.3996C167.909 14.1194 168 14.9211 168 15.8046V23.0931H164.309V16.2463C164.309 15.0683 164.152 14.234 163.838 13.7431C163.525 13.2523 162.938 13.0069 162.08 13.0069C161.815 13.0069 161.535 13.0233 161.237 13.056C160.94 13.0724 160.676 13.0969 160.445 13.1296V23.0931H156.754V10.6265Z" fill="black"/>
<path d="M74.2856 34.9103H75.5357V40.538C75.3029 40.6351 74.8433 40.7565 74.1569 40.9022C73.4828 41.0601 72.6494 41.139 71.6567 41.139C70.8232 41.139 70.0511 40.9933 69.3402 40.7019C68.6294 40.4105 68.0105 39.9916 67.4834 39.4452C66.9687 38.8867 66.5642 38.2007 66.2701 37.3872C65.9759 36.5616 65.8289 35.6206 65.8289 34.5643C65.8289 33.508 65.9882 32.5731 66.3069 31.7596C66.6255 30.9339 67.0545 30.2479 67.5937 29.7016C68.1453 29.143 68.7826 28.7181 69.5057 28.4267C70.2288 28.1353 71.001 27.9896 71.8221 27.9896C72.7658 27.9896 73.5441 28.0928 74.1569 28.2992C74.7697 28.4935 75.2171 28.6817 75.499 28.8638L75.0761 29.9201C74.733 29.6773 74.2672 29.483 73.6789 29.3373C73.0906 29.1795 72.4533 29.1005 71.767 29.1005C71.1296 29.1005 70.5291 29.2159 69.9653 29.4466C69.4015 29.6773 68.9113 30.0233 68.4946 30.4847C68.0779 30.9461 67.7469 31.5167 67.5018 32.1967C67.269 32.8766 67.1525 33.6658 67.1525 34.5643C67.1525 35.4021 67.2506 36.1609 67.4467 36.8408C67.6428 37.5086 67.9369 38.0854 68.3291 38.571C68.7336 39.0446 69.2299 39.4088 69.8182 39.6638C70.4065 39.9188 71.0867 40.0462 71.8589 40.0462C72.4839 40.0462 73.0048 40.0159 73.4215 39.9552C73.8505 39.8823 74.1385 39.8155 74.2856 39.7548V34.9103Z" fill="black"/>
<path d="M86.4781 36.1852C86.4781 36.9258 86.3678 37.5997 86.1472 38.2068C85.9388 38.8139 85.6385 39.3299 85.2464 39.7548C84.8664 40.1798 84.4129 40.5137 83.8859 40.7565C83.3589 40.9872 82.7767 41.1026 82.1394 41.1026C81.5021 41.1026 80.9199 40.9872 80.3929 40.7565C79.8659 40.5137 79.4063 40.1798 79.0141 39.7548C78.6342 39.3299 78.3339 38.8139 78.1133 38.2068C77.9049 37.5997 77.8007 36.9258 77.8007 36.1852C77.8007 35.4446 77.9049 34.7707 78.1133 34.1636C78.3339 33.5565 78.6342 33.0405 79.0141 32.6156C79.4063 32.1785 79.8659 31.8446 80.3929 31.6139C80.9199 31.371 81.5021 31.2496 82.1394 31.2496C82.7767 31.2496 83.3589 31.371 83.8859 31.6139C84.4129 31.8446 84.8664 32.1785 85.2464 32.6156C85.6385 33.0405 85.9388 33.5565 86.1472 34.1636C86.3678 34.7707 86.4781 35.4446 86.4781 36.1852ZM85.2096 36.1852C85.2096 35.0075 84.9338 34.0725 84.3823 33.3805C83.8308 32.6763 83.0831 32.3242 82.1394 32.3242C81.1957 32.3242 80.4481 32.6763 79.8965 33.3805C79.345 34.0725 79.0692 35.0075 79.0692 36.1852C79.0692 37.3629 79.345 38.2978 79.8965 38.9899C80.4481 39.682 81.1957 40.028 82.1394 40.028C83.0831 40.028 83.8308 39.682 84.3823 38.9899C84.9338 38.2978 85.2096 37.3629 85.2096 36.1852Z" fill="black"/>
<path d="M90.2658 32.0327C90.4742 31.8749 90.8051 31.711 91.2586 31.541C91.7243 31.3589 92.2697 31.2678 92.8948 31.2678C93.5811 31.2678 94.1878 31.3892 94.7148 31.6321C95.2541 31.8749 95.7076 32.2149 96.0752 32.652C96.4429 33.0891 96.7187 33.6112 96.9025 34.2183C97.0986 34.8132 97.1967 35.4688 97.1967 36.1852C97.1967 36.9501 97.0802 37.6361 96.8474 38.2432C96.6268 38.8503 96.3081 39.3663 95.8914 39.7913C95.4869 40.2162 94.9967 40.544 94.4207 40.7747C93.8569 40.9933 93.2257 41.1026 92.5271 41.1026C91.6814 41.1026 90.9828 41.0479 90.4313 40.9387C89.8798 40.8294 89.4263 40.714 89.0708 40.5926V26.9697L90.2658 26.7511V32.0327ZM90.2658 39.7731C90.4497 39.8338 90.7193 39.8945 91.0747 39.9552C91.4424 40.0037 91.9204 40.028 92.5087 40.028C93.5382 40.028 94.3655 39.7002 94.9906 39.0446C95.6156 38.3768 95.9282 37.4236 95.9282 36.1852C95.9282 35.6631 95.873 35.1714 95.7627 34.71C95.6524 34.2365 95.4747 33.8297 95.2296 33.4897C94.9844 33.1376 94.6596 32.8584 94.2552 32.652C93.863 32.4456 93.3727 32.3424 92.7845 32.3424C92.5026 32.3424 92.2329 32.3727 91.9756 32.4334C91.7182 32.482 91.4792 32.5488 91.2586 32.6338C91.038 32.7188 90.8419 32.8098 90.6703 32.907C90.5109 33.0041 90.3761 33.0951 90.2658 33.1801V39.7731Z" fill="black"/>
<path d="M100.984 40.884H99.789V31.4682H100.984V40.884ZM101.26 28.627C101.26 28.9063 101.174 29.1309 101.002 29.3009C100.831 29.4587 100.622 29.5376 100.377 29.5376C100.132 29.5376 99.9238 29.4587 99.7522 29.3009C99.5806 29.1309 99.4949 28.9063 99.4949 28.627C99.4949 28.3478 99.5806 28.1292 99.7522 27.9714C99.9238 27.8014 100.132 27.7164 100.377 27.7164C100.622 27.7164 100.831 27.8014 101.002 27.9714C101.174 28.1292 101.26 28.3478 101.26 28.627Z" fill="black"/>
<path d="M103.582 36.167C103.582 35.3414 103.698 34.625 103.931 34.0179C104.176 33.3987 104.489 32.8827 104.869 32.4698C105.261 32.057 105.702 31.7535 106.192 31.5592C106.695 31.3528 107.21 31.2496 107.737 31.2496C108.901 31.2496 109.826 31.626 110.513 32.3788C111.211 33.1316 111.561 34.2911 111.561 35.8574C111.561 35.9545 111.554 36.0516 111.542 36.1488C111.542 36.2459 111.536 36.337 111.524 36.422H104.85C104.887 37.5754 105.175 38.4618 105.714 39.081C106.254 39.7002 107.112 40.0098 108.288 40.0098C108.938 40.0098 109.452 39.9491 109.832 39.8277C110.212 39.7063 110.488 39.6031 110.66 39.5181L110.88 40.538C110.709 40.6351 110.384 40.7505 109.906 40.884C109.44 41.0176 108.889 41.0844 108.251 41.0844C107.418 41.0844 106.707 40.9629 106.119 40.7201C105.53 40.4773 105.046 40.1373 104.666 39.7002C104.286 39.2631 104.011 38.7471 103.839 38.1521C103.668 37.5451 103.582 36.8833 103.582 36.167ZM110.329 35.4203C110.304 34.4368 110.071 33.6719 109.63 33.1255C109.189 32.5791 108.564 32.3059 107.755 32.3059C107.326 32.3059 106.94 32.3909 106.597 32.5609C106.266 32.7309 105.972 32.9616 105.714 33.253C105.469 33.5322 105.273 33.8601 105.126 34.2365C104.991 34.6129 104.912 35.0075 104.887 35.4203H110.329Z" fill="black"/>
<path d="M117.459 31.286C117.851 31.286 118.219 31.3164 118.562 31.3771C118.918 31.4378 119.163 31.4985 119.298 31.5592L119.059 32.5791C118.961 32.5306 118.758 32.482 118.452 32.4334C118.158 32.3727 117.766 32.3424 117.275 32.3424C116.761 32.3424 116.344 32.3788 116.025 32.4516C115.719 32.5245 115.517 32.5852 115.418 32.6338V40.884H114.223V31.9053C114.53 31.7717 114.953 31.6381 115.492 31.5046C116.031 31.3589 116.687 31.286 117.459 31.286Z" fill="black"/>
<path d="M121.1 31.796C121.455 31.6989 121.933 31.5896 122.534 31.4682C123.134 31.3467 123.87 31.286 124.74 31.286C125.463 31.286 126.063 31.3892 126.541 31.5957C127.032 31.8021 127.418 32.0995 127.7 32.4881C127.994 32.8645 128.202 33.3198 128.325 33.854C128.447 34.3882 128.508 34.9771 128.508 35.6206V40.884H127.313V36.0031C127.313 35.3353 127.264 34.7707 127.166 34.3093C127.081 33.8479 126.927 33.4715 126.707 33.1801C126.498 32.8887 126.217 32.6823 125.861 32.5609C125.518 32.4274 125.083 32.3606 124.556 32.3606C123.992 32.3606 123.502 32.3909 123.085 32.4516C122.681 32.5123 122.417 32.567 122.295 32.6156V40.884H121.1V31.796Z" fill="black"/>
<path d="M139.674 36.1852C139.674 36.9258 139.564 37.5997 139.343 38.2068C139.135 38.8139 138.834 39.3299 138.442 39.7548C138.062 40.1798 137.609 40.5137 137.082 40.7565C136.555 40.9872 135.973 41.1026 135.335 41.1026C134.698 41.1026 134.116 40.9872 133.589 40.7565C133.062 40.5137 132.602 40.1798 132.21 39.7548C131.83 39.3299 131.53 38.8139 131.309 38.2068C131.101 37.5997 130.997 36.9258 130.997 36.1852C130.997 35.4446 131.101 34.7707 131.309 34.1636C131.53 33.5565 131.83 33.0405 132.21 32.6156C132.602 32.1785 133.062 31.8446 133.589 31.6139C134.116 31.371 134.698 31.2496 135.335 31.2496C135.973 31.2496 136.555 31.371 137.082 31.6139C137.609 31.8446 138.062 32.1785 138.442 32.6156C138.834 33.0405 139.135 33.5565 139.343 34.1636C139.564 34.7707 139.674 35.4446 139.674 36.1852ZM138.405 36.1852C138.405 35.0075 138.13 34.0725 137.578 33.3805C137.027 32.6763 136.279 32.3242 135.335 32.3242C134.391 32.3242 133.644 32.6763 133.092 33.3805C132.541 34.0725 132.265 35.0075 132.265 36.1852C132.265 37.3629 132.541 38.2978 133.092 38.9899C133.644 39.682 134.391 40.028 135.335 40.028C136.279 40.028 137.027 39.682 137.578 38.9899C138.13 38.2978 138.405 37.3629 138.405 36.1852Z" fill="black"/>
<path d="M184.86 45.4475C184.632 45.4475 184.413 45.3568 184.252 45.1955C184.091 45.0341 184 44.8153 184 44.5871V3.35991C184.012 3.14032 184.108 2.93374 184.268 2.7826C184.428 2.63146 184.639 2.54724 184.859 2.54724C185.079 2.54724 185.291 2.63146 185.45 2.7826C185.61 2.93374 185.706 3.14032 185.718 3.35991V44.5924C185.718 44.7054 185.696 44.8173 185.653 44.9217C185.609 45.0261 185.546 45.1209 185.466 45.2008C185.386 45.2807 185.291 45.344 185.187 45.3873C185.083 45.4305 184.971 45.4528 184.858 45.4528" fill="#FF8300"/>
<path d="M207.797 19.484C207.696 19.2314 207.549 18.8979 207.357 18.4835C207.175 18.0692 206.968 17.6194 206.736 17.1343C206.503 16.6391 206.266 16.1338 206.023 15.6184C205.781 15.0928 205.548 14.6027 205.326 14.1479C205.104 13.6931 204.907 13.2939 204.735 12.9503C204.563 12.6067 204.437 12.3641 204.356 12.2226C204.224 13.4859 204.118 14.8604 204.037 16.346C203.967 17.8215 203.901 19.3729 203.84 21H202.825C202.916 19.0899 203.017 17.2606 203.128 15.5122C203.249 13.7638 203.396 12.0912 203.567 10.4944H204.477C204.78 10.9997 205.104 11.5859 205.447 12.2529C205.791 12.9098 206.129 13.5971 206.463 14.3146C206.807 15.0221 207.135 15.7245 207.448 16.4218C207.772 17.109 208.055 17.7306 208.297 18.2864C208.54 17.7306 208.818 17.109 209.131 16.4218C209.454 15.7245 209.783 15.0221 210.116 14.3146C210.46 13.5971 210.804 12.9098 211.147 12.2529C211.491 11.5859 211.814 10.9997 212.117 10.4944H212.982C213.153 12.0912 213.295 13.7638 213.406 15.5122C213.527 17.2606 213.633 19.0899 213.724 21H212.678C212.618 19.3729 212.547 17.8215 212.466 16.346C212.395 14.8604 212.294 13.4859 212.163 12.2226C212.082 12.3641 211.956 12.6067 211.784 12.9503C211.612 13.2939 211.415 13.6931 211.193 14.1479C210.97 14.6027 210.738 15.0928 210.495 15.6184C210.253 16.1338 210.015 16.6391 209.783 17.1343C209.55 17.6194 209.338 18.0692 209.146 18.4835C208.964 18.8979 208.823 19.2314 208.722 19.484H207.797ZM217.124 21H216.138V13.1625H217.124V21ZM217.351 10.7976C217.351 11.0301 217.28 11.217 217.139 11.3585C216.997 11.4899 216.826 11.5556 216.623 11.5556C216.421 11.5556 216.249 11.4899 216.108 11.3585C215.967 11.217 215.896 11.0301 215.896 10.7976C215.896 10.5652 215.967 10.3833 216.108 10.2519C216.249 10.1104 216.421 10.0396 216.623 10.0396C216.826 10.0396 216.997 10.1104 217.139 10.2519C217.28 10.3833 217.351 10.5652 217.351 10.7976ZM219.736 13.4354C220.029 13.3545 220.423 13.2636 220.918 13.1625C221.413 13.0614 222.02 13.0109 222.737 13.0109C223.334 13.0109 223.829 13.0968 224.223 13.2686C224.627 13.4404 224.946 13.688 225.178 14.0114C225.421 14.3247 225.592 14.7037 225.693 15.1484C225.795 15.5931 225.845 16.0832 225.845 16.6189V21H224.86V16.9372C224.86 16.3814 224.819 15.9114 224.738 15.5274C224.668 15.1434 224.541 14.8301 224.359 14.5875C224.188 14.345 223.955 14.1731 223.662 14.0721C223.379 13.9609 223.02 13.9053 222.586 13.9053C222.121 13.9053 221.717 13.9306 221.373 13.9811C221.039 14.0317 220.822 14.0771 220.721 14.1176V21H219.736V13.4354ZM229.352 21H228.367V13.1625H229.352V21ZM229.579 10.7976C229.579 11.0301 229.509 11.217 229.367 11.3585C229.226 11.4899 229.054 11.5556 228.852 11.5556C228.65 11.5556 228.478 11.4899 228.336 11.3585C228.195 11.217 228.124 11.0301 228.124 10.7976C228.124 10.5652 228.195 10.3833 228.336 10.2519C228.478 10.1104 228.65 10.0396 228.852 10.0396C229.054 10.0396 229.226 10.1104 229.367 10.2519C229.509 10.3833 229.579 10.5652 229.579 10.7976ZM233.571 20.3027C234.137 20.3027 234.602 20.2117 234.966 20.0298C235.34 19.8378 235.527 19.5194 235.527 19.0747C235.527 18.8625 235.491 18.6806 235.42 18.529C235.36 18.3774 235.254 18.241 235.102 18.1197C234.95 17.9984 234.748 17.8822 234.496 17.771C234.253 17.6598 233.95 17.5285 233.586 17.3769C233.293 17.2556 233.015 17.1343 232.752 17.013C232.49 16.8817 232.257 16.7351 232.055 16.5734C231.853 16.4016 231.691 16.1995 231.57 15.967C231.449 15.7346 231.388 15.4516 231.388 15.1181C231.388 14.4814 231.625 13.966 232.1 13.5718C232.586 13.1777 233.248 12.9806 234.086 12.9806C234.622 12.9806 235.062 13.0261 235.405 13.117C235.759 13.208 236.007 13.2888 236.148 13.3596L235.921 14.2388C235.799 14.1782 235.592 14.0973 235.299 13.9963C235.016 13.8952 234.597 13.8447 234.041 13.8447C233.819 13.8447 233.606 13.87 233.404 13.9205C233.212 13.9609 233.04 14.0317 232.889 14.1327C232.737 14.2237 232.616 14.345 232.525 14.4965C232.434 14.638 232.389 14.8149 232.389 15.0271C232.389 15.2394 232.429 15.4213 232.51 15.5729C232.591 15.7245 232.707 15.8609 232.858 15.9822C233.02 16.0934 233.212 16.1995 233.435 16.3005C233.667 16.4016 233.93 16.5128 234.223 16.634C234.526 16.7553 234.814 16.8817 235.087 17.013C235.37 17.1343 235.618 17.2859 235.83 17.4678C236.042 17.6396 236.214 17.8519 236.345 18.1045C236.477 18.3471 236.542 18.6553 236.542 19.0293C236.542 19.7367 236.274 20.2723 235.739 20.6362C235.213 21 234.491 21.1819 233.571 21.1819C232.884 21.1819 232.358 21.1213 231.994 21C231.631 20.8888 231.388 20.8029 231.267 20.7423L231.524 19.8479C231.555 19.8681 231.62 19.9035 231.722 19.954C231.823 19.9944 231.959 20.0449 232.131 20.1056C232.303 20.1561 232.505 20.2016 232.737 20.242C232.98 20.2824 233.258 20.3027 233.571 20.3027ZM239.373 13.1625H242.496V13.9963H239.373V18.1652C239.373 18.6098 239.408 18.9737 239.479 19.2567C239.56 19.5295 239.671 19.7418 239.813 19.8934C239.954 20.0449 240.126 20.146 240.328 20.1965C240.53 20.2471 240.753 20.2723 240.995 20.2723C241.409 20.2723 241.743 20.2269 241.996 20.1359C242.248 20.0348 242.445 19.9439 242.587 19.863L242.829 20.6816C242.688 20.7726 242.44 20.8787 242.087 21C241.733 21.1112 241.349 21.1668 240.934 21.1668C240.449 21.1668 240.04 21.1061 239.707 20.9848C239.383 20.8535 239.12 20.6614 238.918 20.4088C238.726 20.146 238.59 19.8226 238.509 19.4386C238.428 19.0545 238.388 18.5997 238.388 18.0742V10.8583L239.373 10.6763V13.1625ZM243.841 17.0737C243.841 16.3864 243.937 15.7902 244.129 15.2848C244.331 14.7694 244.589 14.3399 244.902 13.9963C245.225 13.6527 245.589 13.4 245.994 13.2383C246.408 13.0665 246.832 12.9806 247.267 12.9806C248.227 12.9806 248.99 13.2939 249.556 13.9205C250.132 14.5471 250.42 15.5122 250.42 16.816C250.42 16.8968 250.415 16.9777 250.405 17.0585C250.405 17.1394 250.4 17.2152 250.39 17.2859H244.887C244.917 18.246 245.155 18.9838 245.599 19.4992C246.044 20.0146 246.752 20.2723 247.722 20.2723C248.257 20.2723 248.682 20.2218 248.995 20.1207C249.308 20.0197 249.536 19.9338 249.677 19.863L249.859 20.712C249.718 20.7928 249.45 20.8888 249.056 21C248.672 21.1112 248.217 21.1668 247.691 21.1668C247.004 21.1668 246.418 21.0657 245.933 20.8636C245.448 20.6614 245.049 20.3785 244.735 20.0146C244.422 19.6508 244.195 19.2213 244.053 18.7261C243.912 18.2207 243.841 17.67 243.841 17.0737ZM249.404 16.4521C249.384 15.6335 249.192 14.9968 248.828 14.542C248.465 14.0872 247.949 13.8598 247.282 13.8598C246.928 13.8598 246.61 13.9306 246.327 14.0721C246.054 14.2136 245.812 14.4056 245.599 14.6481C245.397 14.8806 245.236 15.1535 245.114 15.4668C245.003 15.7801 244.937 16.1085 244.917 16.4521H249.404ZM255.284 13.0109C255.607 13.0109 255.911 13.0362 256.194 13.0867C256.487 13.1372 256.689 13.1878 256.8 13.2383L256.603 14.0872C256.522 14.0468 256.355 14.0064 256.103 13.966C255.86 13.9154 255.537 13.8902 255.132 13.8902C254.708 13.8902 254.364 13.9205 254.102 13.9811C253.849 14.0418 253.682 14.0923 253.601 14.1327V21H252.616V13.5263C252.869 13.4152 253.217 13.304 253.662 13.1928C254.107 13.0716 254.647 13.0109 255.284 13.0109ZM259.271 21H258.286V13.1625H259.271V21ZM259.499 10.7976C259.499 11.0301 259.428 11.217 259.287 11.3585C259.145 11.4899 258.973 11.5556 258.771 11.5556C258.569 11.5556 258.397 11.4899 258.256 11.3585C258.114 11.217 258.043 11.0301 258.043 10.7976C258.043 10.5652 258.114 10.3833 258.256 10.2519C258.397 10.1104 258.569 10.0396 258.771 10.0396C258.973 10.0396 259.145 10.1104 259.287 10.2519C259.428 10.3833 259.499 10.5652 259.499 10.7976ZM268.569 17.0888C268.569 17.7053 268.478 18.2662 268.296 18.7715C268.124 19.2769 267.877 19.7064 267.553 20.0601C267.24 20.4138 266.866 20.6918 266.431 20.8939C265.997 21.0859 265.517 21.1819 264.991 21.1819C264.466 21.1819 263.986 21.0859 263.551 20.8939C263.116 20.6918 262.737 20.4138 262.414 20.0601C262.101 19.7064 261.853 19.2769 261.671 18.7715C261.499 18.2662 261.414 17.7053 261.414 17.0888C261.414 16.4723 261.499 15.9114 261.671 15.4061C261.853 14.9008 262.101 14.4713 262.414 14.1176C262.737 13.7537 263.116 13.4758 263.551 13.2838C263.986 13.0817 264.466 12.9806 264.991 12.9806C265.517 12.9806 265.997 13.0817 266.431 13.2838C266.866 13.4758 267.24 13.7537 267.553 14.1176C267.877 14.4713 268.124 14.9008 268.296 15.4061C268.478 15.9114 268.569 16.4723 268.569 17.0888ZM267.523 17.0888C267.523 16.1085 267.295 15.3303 266.841 14.7543C266.386 14.1681 265.769 13.875 264.991 13.875C264.213 13.875 263.596 14.1681 263.142 14.7543C262.687 15.3303 262.46 16.1085 262.46 17.0888C262.46 18.0692 262.687 18.8473 263.142 19.4234C263.596 19.9995 264.213 20.2875 264.991 20.2875C265.769 20.2875 266.386 19.9995 266.841 19.4234C267.295 18.8473 267.523 18.0692 267.523 17.0888ZM280.387 20.7574C280.094 20.8585 279.72 20.9545 279.265 21.0455C278.81 21.1364 278.234 21.1819 277.537 21.1819C276.961 21.1819 276.435 21.091 275.96 20.909C275.495 20.717 275.091 20.4441 274.747 20.0904C274.414 19.7367 274.151 19.3072 273.959 18.8019C273.777 18.2965 273.686 17.7255 273.686 17.0888C273.686 16.4926 273.762 15.9468 273.914 15.4516C274.075 14.9463 274.308 14.5117 274.611 14.1479C274.914 13.784 275.283 13.5011 275.718 13.2989C276.162 13.0968 276.668 12.9958 277.234 12.9958C277.749 12.9958 278.194 13.0716 278.568 13.2231C278.952 13.3646 279.23 13.5011 279.401 13.6325V9.4181L280.387 9.23618V20.7574ZM279.401 14.5875C279.31 14.5168 279.194 14.441 279.053 14.3601C278.921 14.2793 278.765 14.2035 278.583 14.1327C278.401 14.062 278.204 14.0064 277.992 13.966C277.779 13.9154 277.557 13.8902 277.325 13.8902C276.839 13.8902 276.43 13.9761 276.097 14.1479C275.773 14.3197 275.51 14.5521 275.308 14.8452C275.106 15.1282 274.96 15.4668 274.869 15.8609C274.778 16.245 274.732 16.6543 274.732 17.0888C274.732 18.1197 274.99 18.913 275.505 19.4689C276.021 20.0146 276.703 20.2875 277.552 20.2875C278.037 20.2875 278.426 20.2673 278.719 20.2269C279.022 20.1763 279.25 20.1258 279.401 20.0753V14.5875ZM282.524 17.0737C282.524 16.3864 282.62 15.7902 282.812 15.2848C283.015 14.7694 283.272 14.3399 283.586 13.9963C283.909 13.6527 284.273 13.4 284.677 13.2383C285.091 13.0665 285.516 12.9806 285.95 12.9806C286.911 12.9806 287.674 13.2939 288.24 13.9205C288.816 14.5471 289.104 15.5122 289.104 16.816C289.104 16.8968 289.099 16.9777 289.088 17.0585C289.088 17.1394 289.083 17.2152 289.073 17.2859H283.57C283.601 18.246 283.838 18.9838 284.283 19.4992C284.728 20.0146 285.435 20.2723 286.405 20.2723C286.941 20.2723 287.365 20.2218 287.679 20.1207C287.992 20.0197 288.219 19.9338 288.361 19.863L288.543 20.712C288.401 20.7928 288.133 20.8888 287.739 21C287.355 21.1112 286.9 21.1668 286.375 21.1668C285.688 21.1668 285.102 21.0657 284.616 20.8636C284.131 20.6614 283.732 20.3785 283.419 20.0146C283.106 19.6508 282.878 19.2213 282.737 18.7261C282.595 18.2207 282.524 17.67 282.524 17.0737ZM288.088 16.4521C288.068 15.6335 287.876 14.9968 287.512 14.542C287.148 14.0872 286.633 13.8598 285.966 13.8598C285.612 13.8598 285.294 13.9306 285.011 14.0721C284.738 14.2136 284.495 14.4056 284.283 14.6481C284.081 14.8806 283.919 15.1535 283.798 15.4668C283.687 15.7801 283.621 16.1085 283.601 16.4521H288.088ZM294.703 21V10.4944H301.449V12.1165H296.614V14.7088H300.919V16.3005H296.614V19.3779H301.813V21H294.703ZM302.848 17.0434C302.848 16.4572 302.939 15.9114 303.121 15.4061C303.303 14.8907 303.561 14.446 303.894 14.0721C304.238 13.6981 304.652 13.4051 305.137 13.1928C305.622 12.9806 306.168 12.8745 306.774 12.8745C307.522 12.8745 308.23 13.0109 308.897 13.2838L308.503 14.7846C308.29 14.6936 308.048 14.6178 307.775 14.5572C307.512 14.4965 307.229 14.4662 306.926 14.4662C306.209 14.4662 305.663 14.6936 305.289 15.1484C304.915 15.5931 304.728 16.2247 304.728 17.0434C304.728 17.8317 304.905 18.4582 305.259 18.9231C305.612 19.3779 306.209 19.6053 307.047 19.6053C307.361 19.6053 307.669 19.575 307.972 19.5144C308.275 19.4537 308.538 19.3779 308.76 19.287L309.018 20.8029C308.816 20.904 308.508 20.9949 308.093 21.0758C307.689 21.1566 307.27 21.1971 306.835 21.1971C306.158 21.1971 305.567 21.096 305.061 20.8939C304.566 20.6816 304.152 20.3936 303.818 20.0298C303.495 19.6559 303.252 19.2162 303.091 18.7109C302.929 18.1955 302.848 17.6396 302.848 17.0434ZM317.446 17.0282C317.446 17.6548 317.355 18.2258 317.173 18.7412C316.991 19.2567 316.733 19.6963 316.4 20.0601C316.066 20.4239 315.662 20.7069 315.187 20.909C314.722 21.1112 314.207 21.2122 313.641 21.2122C313.075 21.2122 312.559 21.1112 312.095 20.909C311.63 20.7069 311.23 20.4239 310.897 20.0601C310.563 19.6963 310.301 19.2567 310.109 18.7412C309.927 18.2258 309.836 17.6548 309.836 17.0282C309.836 16.4016 309.927 15.8356 310.109 15.3303C310.301 14.8149 310.563 14.3753 310.897 14.0114C311.241 13.6476 311.645 13.3697 312.11 13.1777C312.575 12.9755 313.085 12.8745 313.641 12.8745C314.197 12.8745 314.707 12.9755 315.172 13.1777C315.647 13.3697 316.051 13.6476 316.385 14.0114C316.718 14.3753 316.976 14.8149 317.158 15.3303C317.35 15.8356 317.446 16.4016 317.446 17.0282ZM315.566 17.0282C315.566 16.2399 315.394 15.6184 315.051 15.1636C314.717 14.6987 314.247 14.4662 313.641 14.4662C313.034 14.4662 312.559 14.6987 312.216 15.1636C311.882 15.6184 311.716 16.2399 311.716 17.0282C311.716 17.8266 311.882 18.4582 312.216 18.9231C312.559 19.388 313.034 19.6205 313.641 19.6205C314.247 19.6205 314.717 19.388 315.051 18.9231C315.394 18.4582 315.566 17.8266 315.566 17.0282ZM319.336 13.3293C319.689 13.2282 320.149 13.1322 320.715 13.0412C321.281 12.9503 321.908 12.9048 322.595 12.9048C323.242 12.9048 323.782 12.9958 324.217 13.1777C324.652 13.3495 324.995 13.5971 325.248 13.9205C325.511 14.2338 325.692 14.6178 325.794 15.0726C325.905 15.5173 325.96 16.0075 325.96 16.5431V21H324.126V16.8311C324.126 16.4067 324.096 16.0479 324.035 15.7548C323.985 15.4516 323.894 15.209 323.762 15.0271C323.641 14.8351 323.469 14.6987 323.247 14.6178C323.035 14.5269 322.772 14.4814 322.458 14.4814C322.226 14.4814 321.983 14.4965 321.731 14.5269C321.478 14.5572 321.291 14.5825 321.17 14.6027V21H319.336V13.3293ZM335.374 17.0282C335.374 17.6548 335.283 18.2258 335.101 18.7412C334.919 19.2567 334.661 19.6963 334.328 20.0601C333.994 20.4239 333.59 20.7069 333.115 20.909C332.65 21.1112 332.135 21.2122 331.569 21.2122C331.003 21.2122 330.487 21.1112 330.022 20.909C329.558 20.7069 329.158 20.4239 328.825 20.0601C328.491 19.6963 328.229 19.2567 328.037 18.7412C327.855 18.2258 327.764 17.6548 327.764 17.0282C327.764 16.4016 327.855 15.8356 328.037 15.3303C328.229 14.8149 328.491 14.3753 328.825 14.0114C329.169 13.6476 329.573 13.3697 330.038 13.1777C330.503 12.9755 331.013 12.8745 331.569 12.8745C332.125 12.8745 332.635 12.9755 333.1 13.1777C333.575 13.3697 333.979 13.6476 334.313 14.0114C334.646 14.3753 334.904 14.8149 335.086 15.3303C335.278 15.8356 335.374 16.4016 335.374 17.0282ZM333.494 17.0282C333.494 16.2399 333.322 15.6184 332.979 15.1636C332.645 14.6987 332.175 14.4662 331.569 14.4662C330.962 14.4662 330.487 14.6987 330.144 15.1636C329.81 15.6184 329.644 16.2399 329.644 17.0282C329.644 17.8266 329.81 18.4582 330.144 18.9231C330.487 19.388 330.962 19.6205 331.569 19.6205C332.175 19.6205 332.645 19.388 332.979 18.9231C333.322 18.4582 333.494 17.8266 333.494 17.0282ZM341.781 16.8311C341.781 16.0024 341.675 15.4061 341.463 15.0423C341.261 14.6684 340.877 14.4814 340.311 14.4814C340.108 14.4814 339.886 14.4965 339.644 14.5269C339.401 14.5572 339.219 14.5825 339.098 14.6027V21H337.264V13.3293C337.617 13.2282 338.077 13.1322 338.643 13.0412C339.219 12.9503 339.826 12.9048 340.462 12.9048C341.008 12.9048 341.453 12.9755 341.796 13.117C342.15 13.2585 342.443 13.4455 342.676 13.6779C342.787 13.5971 342.928 13.5112 343.1 13.4202C343.272 13.3293 343.464 13.2484 343.676 13.1777C343.888 13.0968 344.111 13.0311 344.343 12.9806C344.586 12.9301 344.828 12.9048 345.071 12.9048C345.687 12.9048 346.193 12.9958 346.587 13.1777C346.991 13.3495 347.304 13.5971 347.527 13.9205C347.759 14.2338 347.916 14.6178 347.997 15.0726C348.087 15.5173 348.133 16.0075 348.133 16.5431V21H346.299V16.8311C346.299 16.0024 346.198 15.4061 345.995 15.0423C345.793 14.6684 345.404 14.4814 344.828 14.4814C344.535 14.4814 344.257 14.5319 343.994 14.633C343.732 14.7239 343.535 14.8149 343.403 14.9059C343.484 15.1585 343.54 15.4263 343.57 15.7093C343.6 15.9923 343.615 16.2955 343.615 16.6189V21H341.781V16.8311ZM352.23 21H350.395V13.0716H352.23V21ZM353.488 9.8274L351.017 12.2226L350.107 11.404L352.336 8.75108L353.488 9.8274ZM357.359 19.7114C357.925 19.7114 358.355 19.6811 358.648 19.6205V17.5891C358.547 17.5588 358.4 17.5285 358.208 17.4981C358.016 17.4678 357.804 17.4527 357.571 17.4527C357.369 17.4527 357.162 17.4678 356.95 17.4981C356.748 17.5285 356.561 17.584 356.389 17.6649C356.227 17.7457 356.096 17.862 355.995 18.0136C355.894 18.1551 355.843 18.337 355.843 18.5593C355.843 18.9939 355.98 19.2971 356.252 19.4689C356.525 19.6306 356.894 19.7114 357.359 19.7114ZM357.207 12.8745C357.814 12.8745 358.324 12.9503 358.739 13.1019C359.153 13.2535 359.481 13.4657 359.724 13.7386C359.977 14.0114 360.153 14.345 360.255 14.7391C360.366 15.1231 360.421 15.5476 360.421 16.0125V20.8181C360.138 20.8787 359.709 20.9495 359.133 21.0303C358.567 21.1213 357.925 21.1668 357.207 21.1668C356.732 21.1668 356.298 21.1213 355.904 21.0303C355.51 20.9394 355.171 20.7928 354.888 20.5907C354.615 20.3886 354.398 20.1258 354.236 19.8024C354.085 19.479 354.009 19.0798 354.009 18.6048C354.009 18.15 354.095 17.766 354.267 17.4527C354.448 17.1394 354.691 16.8867 354.994 16.6947C355.297 16.4926 355.646 16.3511 356.04 16.2702C356.444 16.1793 356.864 16.1338 357.298 16.1338C357.501 16.1338 357.713 16.1489 357.935 16.1793C358.157 16.1995 358.395 16.2399 358.648 16.3005V15.9973C358.648 15.7851 358.622 15.583 358.572 15.391C358.521 15.1989 358.43 15.0322 358.299 14.8907C358.178 14.7391 358.011 14.6229 357.799 14.542C357.597 14.4612 357.339 14.4208 357.026 14.4208C356.601 14.4208 356.212 14.4511 355.858 14.5117C355.505 14.5723 355.217 14.6431 354.994 14.7239L354.767 13.2383C354.999 13.1575 355.338 13.0766 355.782 12.9958C356.227 12.9149 356.702 12.8745 357.207 12.8745ZM364.563 18.9838C364.583 19.1556 364.593 19.2819 364.593 19.3628C364.593 19.4436 364.593 19.5245 364.593 19.6053C364.593 20.2319 364.492 20.8787 364.29 21.5457C364.098 22.2128 363.825 22.8444 363.471 23.4407L362.031 23.0465C362.274 22.4604 362.435 21.8843 362.516 21.3184C362.607 20.7625 362.652 20.2723 362.652 19.8479C362.652 19.7266 362.647 19.575 362.637 19.3931C362.637 19.2112 362.632 19.0747 362.622 18.9838H364.563ZM202.976 38V27.4944H209.616V29.1165H204.886V31.7997H209.086V33.4218H204.886V38H202.976ZM213.084 38H211.25V30.0716H213.084V38ZM213.281 27.7521C213.281 28.0958 213.17 28.3686 212.948 28.5708C212.726 28.7729 212.463 28.8739 212.16 28.8739C211.846 28.8739 211.579 28.7729 211.356 28.5708C211.134 28.3686 211.023 28.0958 211.023 27.7521C211.023 27.3984 211.134 27.1205 211.356 26.9184C211.579 26.7162 211.846 26.6152 212.16 26.6152C212.463 26.6152 212.726 26.7162 212.948 26.9184C213.17 27.1205 213.281 27.3984 213.281 27.7521ZM215.425 30.3293C215.778 30.2282 216.238 30.1322 216.804 30.0412C217.37 29.9503 217.997 29.9048 218.684 29.9048C219.331 29.9048 219.871 29.9958 220.306 30.1777C220.74 30.3495 221.084 30.5971 221.337 30.9205C221.6 31.2338 221.781 31.6178 221.882 32.0726C221.994 32.5173 222.049 33.0075 222.049 33.5431V38H220.215V33.8311C220.215 33.4067 220.185 33.0479 220.124 32.7548C220.073 32.4516 219.982 32.209 219.851 32.0271C219.73 31.8351 219.558 31.6987 219.336 31.6178C219.123 31.5269 218.861 31.4814 218.547 31.4814C218.315 31.4814 218.072 31.4965 217.82 31.5269C217.567 31.5572 217.38 31.5825 217.259 31.6027V38H215.425V30.3293ZM227.082 36.7114C227.648 36.7114 228.077 36.6811 228.37 36.6205V34.5891C228.269 34.5588 228.123 34.5285 227.931 34.4981C227.739 34.4678 227.526 34.4527 227.294 34.4527C227.092 34.4527 226.885 34.4678 226.672 34.4981C226.47 34.5285 226.283 34.584 226.111 34.6649C225.95 34.7457 225.818 34.862 225.717 35.0136C225.616 35.1551 225.566 35.337 225.566 35.5593C225.566 35.9939 225.702 36.2971 225.975 36.4689C226.248 36.6306 226.617 36.7114 227.082 36.7114ZM226.93 29.8745C227.536 29.8745 228.047 29.9503 228.461 30.1019C228.875 30.2535 229.204 30.4657 229.447 30.7386C229.699 31.0114 229.876 31.345 229.977 31.7391C230.088 32.1231 230.144 32.5476 230.144 33.0125V37.8181C229.861 37.8787 229.431 37.9495 228.855 38.0303C228.289 38.1213 227.648 38.1668 226.93 38.1668C226.455 38.1668 226.02 38.1213 225.626 38.0303C225.232 37.9394 224.894 37.7928 224.611 37.5907C224.338 37.3886 224.12 37.1258 223.959 36.8024C223.807 36.479 223.731 36.0798 223.731 35.6048C223.731 35.15 223.817 34.766 223.989 34.4527C224.171 34.1394 224.414 33.8867 224.717 33.6947C225.02 33.4926 225.369 33.3511 225.763 33.2702C226.167 33.1793 226.586 33.1338 227.021 33.1338C227.223 33.1338 227.435 33.1489 227.658 33.1793C227.88 33.1995 228.118 33.2399 228.37 33.3005V32.9973C228.37 32.7851 228.345 32.583 228.294 32.391C228.244 32.1989 228.153 32.0322 228.022 31.8907C227.9 31.7391 227.733 31.6229 227.521 31.542C227.319 31.4612 227.061 31.4208 226.748 31.4208C226.324 31.4208 225.935 31.4511 225.581 31.5117C225.227 31.5723 224.939 31.6431 224.717 31.7239L224.489 30.2383C224.722 30.1575 225.06 30.0766 225.505 29.9958C225.95 29.9149 226.425 29.8745 226.93 29.8745ZM232.39 30.3293C232.744 30.2282 233.204 30.1322 233.77 30.0412C234.336 29.9503 234.962 29.9048 235.649 29.9048C236.296 29.9048 236.837 29.9958 237.272 30.1777C237.706 30.3495 238.05 30.5971 238.302 30.9205C238.565 31.2338 238.747 31.6178 238.848 32.0726C238.959 32.5173 239.015 33.0075 239.015 33.5431V38H237.181V33.8311C237.181 33.4067 237.15 33.0479 237.09 32.7548C237.039 32.4516 236.948 32.209 236.817 32.0271C236.696 31.8351 236.524 31.6987 236.301 31.6178C236.089 31.5269 235.826 31.4814 235.513 31.4814C235.281 31.4814 235.038 31.4965 234.785 31.5269C234.533 31.5572 234.346 31.5825 234.224 31.6027V38H232.39V30.3293ZM246.806 31.3601C246.604 31.5723 246.336 31.8705 246.003 32.2545C245.679 32.6386 245.331 33.0681 244.957 33.5431C244.583 34.008 244.204 34.4981 243.82 35.0136C243.446 35.5189 243.107 36.004 242.804 36.4689H246.897V38H240.591V36.863C240.813 36.4588 241.091 36.0192 241.425 35.5442C241.758 35.0692 242.102 34.5942 242.456 34.1192C242.809 33.634 243.158 33.1742 243.502 32.7396C243.855 32.3051 244.169 31.9261 244.441 31.6027H240.788V30.0716H246.806V31.3601ZM251.39 36.7114C251.956 36.7114 252.386 36.6811 252.679 36.6205V34.5891C252.578 34.5588 252.431 34.5285 252.239 34.4981C252.047 34.4678 251.835 34.4527 251.602 34.4527C251.4 34.4527 251.193 34.4678 250.981 34.4981C250.779 34.5285 250.592 34.584 250.42 34.6649C250.258 34.7457 250.127 34.862 250.026 35.0136C249.925 35.1551 249.874 35.337 249.874 35.5593C249.874 35.9939 250.011 36.2971 250.284 36.4689C250.556 36.6306 250.925 36.7114 251.39 36.7114ZM251.239 29.8745C251.845 29.8745 252.355 29.9503 252.77 30.1019C253.184 30.2535 253.513 30.4657 253.755 30.7386C254.008 31.0114 254.185 31.345 254.286 31.7391C254.397 32.1231 254.452 32.5476 254.452 33.0125V37.8181C254.169 37.8787 253.74 37.9495 253.164 38.0303C252.598 38.1213 251.956 38.1668 251.239 38.1668C250.764 38.1668 250.329 38.1213 249.935 38.0303C249.541 37.9394 249.202 37.7928 248.919 37.5907C248.646 37.3886 248.429 37.1258 248.267 36.8024C248.116 36.479 248.04 36.0798 248.04 35.6048C248.04 35.15 248.126 34.766 248.298 34.4527C248.48 34.1394 248.722 33.8867 249.025 33.6947C249.329 33.4926 249.677 33.3511 250.071 33.2702C250.476 33.1793 250.895 33.1338 251.33 33.1338C251.532 33.1338 251.744 33.1489 251.966 33.1793C252.189 33.1995 252.426 33.2399 252.679 33.3005V32.9973C252.679 32.7851 252.654 32.583 252.603 32.391C252.552 32.1989 252.461 32.0322 252.33 31.8907C252.209 31.7391 252.042 31.6229 251.83 31.542C251.628 31.4612 251.37 31.4208 251.057 31.4208C250.632 31.4208 250.243 31.4511 249.889 31.5117C249.536 31.5723 249.248 31.6431 249.025 31.7239L248.798 30.2383C249.03 30.1575 249.369 30.0766 249.814 29.9958C250.258 29.9149 250.733 29.8745 251.239 29.8745ZM258.685 36.6811C259.17 36.6811 259.524 36.6255 259.746 36.5144C259.968 36.3931 260.079 36.191 260.079 35.908C260.079 35.6452 259.958 35.4279 259.716 35.2561C259.483 35.0843 259.094 34.8973 258.548 34.6952C258.215 34.5739 257.906 34.4476 257.624 34.3162C257.351 34.1747 257.113 34.013 256.911 33.8311C256.709 33.6492 256.547 33.4319 256.426 33.1793C256.315 32.9165 256.259 32.5981 256.259 32.2242C256.259 31.4965 256.527 30.9255 257.063 30.5112C257.598 30.0867 258.326 29.8745 259.246 29.8745C259.71 29.8745 260.155 29.92 260.58 30.0109C261.004 30.0918 261.322 30.1726 261.535 30.2535L261.201 31.7391C260.999 31.6481 260.741 31.5673 260.428 31.4965C260.115 31.4157 259.751 31.3753 259.337 31.3753C258.963 31.3753 258.659 31.441 258.427 31.5723C258.195 31.6936 258.078 31.8856 258.078 32.1484C258.078 32.2798 258.099 32.396 258.139 32.4971C258.189 32.5981 258.27 32.6942 258.381 32.7851C258.493 32.866 258.639 32.9519 258.821 33.0428C259.003 33.1237 259.225 33.2096 259.488 33.3005C259.923 33.4622 260.292 33.6239 260.595 33.7856C260.898 33.9372 261.146 34.1141 261.338 34.3162C261.54 34.5082 261.686 34.7306 261.777 34.9832C261.868 35.2359 261.914 35.5391 261.914 35.8928C261.914 36.6508 261.631 37.2269 261.065 37.621C260.509 38.0051 259.71 38.1971 258.67 38.1971C257.972 38.1971 257.411 38.1364 256.987 38.0152C256.562 37.904 256.264 37.813 256.092 37.7423L256.411 36.2112C256.684 36.3223 257.007 36.4285 257.381 36.5295C257.765 36.6306 258.2 36.6811 258.685 36.6811ZM273.639 30.0716C272.82 33.0832 271.87 35.812 270.789 38.2577C270.586 38.7125 270.379 39.1016 270.167 39.425C269.955 39.7484 269.717 40.0162 269.454 40.2285C269.192 40.4407 268.899 40.5923 268.575 40.6832C268.252 40.7843 267.878 40.8348 267.453 40.8348C267.17 40.8348 266.887 40.8045 266.604 40.7439C266.332 40.6832 266.124 40.6176 265.983 40.5468L266.316 39.0763C266.68 39.2178 267.039 39.2886 267.393 39.2886C267.868 39.2886 268.237 39.1723 268.499 38.9399C268.772 38.7176 269.01 38.3689 269.212 37.8939C268.636 36.7822 268.08 35.5694 267.544 34.2556C267.019 32.9418 266.549 31.5471 266.135 30.0716H268.09C268.191 30.496 268.312 30.9559 268.454 31.4511C268.606 31.9463 268.767 32.4516 268.939 32.967C269.111 33.4723 269.293 33.9777 269.485 34.483C269.677 34.9883 269.869 35.4582 270.061 35.8928C270.384 34.9934 270.687 34.0383 270.97 33.0277C271.253 32.0069 271.511 31.0215 271.744 30.0716H273.639ZM285.129 27.4944H287.039V38H285.129V33.346H280.566V38H278.656V27.4944H280.566V31.6936H285.129V27.4944ZM292.25 36.7114C292.816 36.7114 293.245 36.6811 293.539 36.6205V34.5891C293.437 34.5588 293.291 34.5285 293.099 34.4981C292.907 34.4678 292.695 34.4527 292.462 34.4527C292.26 34.4527 292.053 34.4678 291.841 34.4981C291.639 34.5285 291.452 34.584 291.28 34.6649C291.118 34.7457 290.987 34.862 290.886 35.0136C290.785 35.1551 290.734 35.337 290.734 35.5593C290.734 35.9939 290.87 36.2971 291.143 36.4689C291.416 36.6306 291.785 36.7114 292.25 36.7114ZM292.098 29.8745C292.705 29.8745 293.215 29.9503 293.629 30.1019C294.044 30.2535 294.372 30.4657 294.615 30.7386C294.868 31.0114 295.044 31.345 295.145 31.7391C295.257 32.1231 295.312 32.5476 295.312 33.0125V37.8181C295.029 37.8787 294.6 37.9495 294.024 38.0303C293.458 38.1213 292.816 38.1668 292.098 38.1668C291.623 38.1668 291.189 38.1213 290.795 38.0303C290.4 37.9394 290.062 37.7928 289.779 37.5907C289.506 37.3886 289.289 37.1258 289.127 36.8024C288.975 36.479 288.9 36.0798 288.9 35.6048C288.9 35.15 288.986 34.766 289.157 34.4527C289.339 34.1394 289.582 33.8867 289.885 33.6947C290.188 33.4926 290.537 33.3511 290.931 33.2702C291.335 33.1793 291.755 33.1338 292.189 33.1338C292.391 33.1338 292.604 33.1489 292.826 33.1793C293.048 33.1995 293.286 33.2399 293.539 33.3005V32.9973C293.539 32.7851 293.513 32.583 293.463 32.391C293.412 32.1989 293.321 32.0322 293.19 31.8907C293.069 31.7391 292.902 31.6229 292.69 31.542C292.487 31.4612 292.23 31.4208 291.916 31.4208C291.492 31.4208 291.103 31.4511 290.749 31.5117C290.395 31.5723 290.107 31.6431 289.885 31.7239L289.658 30.2383C289.89 30.1575 290.229 30.0766 290.673 29.9958C291.118 29.9149 291.593 29.8745 292.098 29.8745ZM297.119 34.0434C297.119 33.4572 297.21 32.9114 297.392 32.4061C297.574 31.8907 297.831 31.446 298.165 31.0721C298.509 30.6981 298.923 30.4051 299.408 30.1928C299.893 29.9806 300.439 29.8745 301.045 29.8745C301.793 29.8745 302.501 30.0109 303.168 30.2838L302.773 31.7846C302.561 31.6936 302.319 31.6178 302.046 31.5572C301.783 31.4965 301.5 31.4662 301.197 31.4662C300.479 31.4662 299.934 31.6936 299.56 32.1484C299.186 32.5931 298.999 33.2247 298.999 34.0434C298.999 34.8317 299.176 35.4582 299.529 35.9231C299.883 36.3779 300.479 36.6053 301.318 36.6053C301.631 36.6053 301.94 36.575 302.243 36.5144C302.546 36.4537 302.809 36.3779 303.031 36.287L303.289 37.8029C303.087 37.904 302.778 37.9949 302.364 38.0758C301.96 38.1566 301.54 38.1971 301.106 38.1971C300.429 38.1971 299.838 38.096 299.332 37.8939C298.837 37.6816 298.423 37.3936 298.089 37.0298C297.766 36.6559 297.523 36.2162 297.361 35.7109C297.2 35.1955 297.119 34.6396 297.119 34.0434ZM306.558 38H304.724V30.0716H306.558V38ZM306.756 27.7521C306.756 28.0958 306.644 28.3686 306.422 28.5708C306.2 28.7729 305.937 28.8739 305.634 28.8739C305.32 28.8739 305.053 28.7729 304.83 28.5708C304.608 28.3686 304.497 28.0958 304.497 27.7521C304.497 27.3984 304.608 27.1205 304.83 26.9184C305.053 26.7162 305.32 26.6152 305.634 26.6152C305.937 26.6152 306.2 26.7162 306.422 26.9184C306.644 27.1205 306.756 27.3984 306.756 27.7521ZM308.459 34.0737C308.459 33.3763 308.56 32.7649 308.762 32.2394C308.974 31.7138 309.252 31.2793 309.596 30.9356C309.94 30.5819 310.334 30.3192 310.778 30.1473C311.223 29.9654 311.678 29.8745 312.143 29.8745C313.234 29.8745 314.083 30.213 314.69 30.8902C315.306 31.5673 315.614 32.5779 315.614 33.9221C315.614 34.0231 315.609 34.1394 315.599 34.2707C315.599 34.392 315.594 34.5032 315.584 34.6043H310.354C310.404 35.241 310.627 35.7362 311.021 36.0899C311.425 36.4335 312.006 36.6053 312.764 36.6053C313.209 36.6053 313.613 36.5649 313.977 36.484C314.351 36.4032 314.644 36.3173 314.856 36.2263L315.099 37.7271C314.998 37.7777 314.856 37.8332 314.674 37.8939C314.503 37.9444 314.3 37.9899 314.068 38.0303C313.846 38.0809 313.603 38.1213 313.34 38.1516C313.078 38.1819 312.81 38.1971 312.537 38.1971C311.84 38.1971 311.233 38.096 310.718 37.8939C310.202 37.6816 309.778 37.3936 309.444 37.0298C309.111 36.6559 308.863 36.2213 308.702 35.7261C308.54 35.2207 308.459 34.67 308.459 34.0737ZM313.78 33.2551C313.78 33.0024 313.745 32.7649 313.674 32.5426C313.603 32.3101 313.497 32.113 313.356 31.9513C313.224 31.7795 313.057 31.6481 312.855 31.5572C312.663 31.4561 312.431 31.4056 312.158 31.4056C311.875 31.4056 311.627 31.4612 311.415 31.5723C311.203 31.6734 311.021 31.8098 310.869 31.9817C310.728 32.1535 310.617 32.3505 310.536 32.5729C310.455 32.7952 310.399 33.0226 310.369 33.2551H313.78ZM317.559 30.3293C317.913 30.2282 318.373 30.1322 318.939 30.0412C319.505 29.9503 320.131 29.9048 320.818 29.9048C321.465 29.9048 322.006 29.9958 322.44 30.1777C322.875 30.3495 323.219 30.5971 323.471 30.9205C323.734 31.2338 323.916 31.6178 324.017 32.0726C324.128 32.5173 324.184 33.0075 324.184 33.5431V38H322.349V33.8311C322.349 33.4067 322.319 33.0479 322.259 32.7548C322.208 32.4516 322.117 32.209 321.986 32.0271C321.864 31.8351 321.693 31.6987 321.47 31.6178C321.258 31.5269 320.995 31.4814 320.682 31.4814C320.45 31.4814 320.207 31.4965 319.954 31.5269C319.702 31.5572 319.515 31.5825 319.393 31.6027V38H317.559V30.3293ZM327.867 34.013C327.867 34.8215 328.059 35.4582 328.443 35.9231C328.827 36.3779 329.358 36.6053 330.035 36.6053C330.328 36.6053 330.575 36.5952 330.778 36.575C330.99 36.5447 331.162 36.5144 331.293 36.484V31.9362C331.131 31.825 330.914 31.7239 330.641 31.633C330.378 31.5319 330.095 31.4814 329.792 31.4814C329.125 31.4814 328.635 31.7088 328.322 32.1636C328.019 32.6184 327.867 33.2348 327.867 34.013ZM333.127 37.7574C332.764 37.8686 332.304 37.9697 331.748 38.0606C331.202 38.1516 330.626 38.1971 330.02 38.1971C329.393 38.1971 328.832 38.1011 328.337 37.909C327.842 37.717 327.417 37.4441 327.064 37.0904C326.72 36.7266 326.452 36.292 326.26 35.7867C326.078 35.2713 325.987 34.6952 325.987 34.0585C325.987 33.4319 326.063 32.866 326.215 32.3606C326.376 31.8452 326.609 31.4056 326.912 31.0418C327.215 30.6779 327.584 30.4 328.019 30.208C328.453 30.0059 328.953 29.9048 329.519 29.9048C329.903 29.9048 330.242 29.9503 330.535 30.0412C330.828 30.1322 331.081 30.2333 331.293 30.3444V26.5394L333.127 26.2362V37.7574ZM338.247 36.7114C338.813 36.7114 339.242 36.6811 339.535 36.6205V34.5891C339.434 34.5588 339.288 34.5285 339.096 34.4981C338.904 34.4678 338.691 34.4527 338.459 34.4527C338.257 34.4527 338.05 34.4678 337.837 34.4981C337.635 34.5285 337.448 34.584 337.277 34.6649C337.115 34.7457 336.983 34.862 336.882 35.0136C336.781 35.1551 336.731 35.337 336.731 35.5593C336.731 35.9939 336.867 36.2971 337.14 36.4689C337.413 36.6306 337.782 36.7114 338.247 36.7114ZM338.095 29.8745C338.702 29.8745 339.212 29.9503 339.626 30.1019C340.041 30.2535 340.369 30.4657 340.612 30.7386C340.864 31.0114 341.041 31.345 341.142 31.7391C341.253 32.1231 341.309 32.5476 341.309 33.0125V37.8181C341.026 37.8787 340.597 37.9495 340.02 38.0303C339.455 38.1213 338.813 38.1668 338.095 38.1668C337.62 38.1668 337.186 38.1213 336.791 38.0303C336.397 37.9394 336.059 37.7928 335.776 37.5907C335.503 37.3886 335.286 37.1258 335.124 36.8024C334.972 36.479 334.897 36.0798 334.897 35.6048C334.897 35.15 334.982 34.766 335.154 34.4527C335.336 34.1394 335.579 33.8867 335.882 33.6947C336.185 33.4926 336.534 33.3511 336.928 33.2702C337.332 33.1793 337.752 33.1338 338.186 33.1338C338.388 33.1338 338.601 33.1489 338.823 33.1793C339.045 33.1995 339.283 33.2399 339.535 33.3005V32.9973C339.535 32.7851 339.51 32.583 339.46 32.391C339.409 32.1989 339.318 32.0322 339.187 31.8907C339.065 31.7391 338.899 31.6229 338.686 31.542C338.484 31.4612 338.227 31.4208 337.913 31.4208C337.489 31.4208 337.1 31.4511 336.746 31.5117C336.392 31.5723 336.104 31.6431 335.882 31.7239L335.655 30.2383C335.887 30.1575 336.226 30.0766 336.67 29.9958C337.115 29.9149 337.59 29.8745 338.095 29.8745Z" fill="black"/>
</svg>
